<svg width="560" height="174" viewBox="0 0 560 174" fill="none" xmlns="http://www.w3.org/2000/svg">
<path d="M280 0.5C357.284 0.5 427.232 10.2337 477.842 25.959C503.15 33.8225 523.594 43.1764 537.7 53.5391C551.817 63.9092 559.5 75.2223 559.5 87C559.5 98.7777 551.817 110.091 537.7 120.461C523.594 130.824 503.15 140.177 477.842 148.041C427.232 163.766 357.284 173.5 280 173.5C202.716 173.5 132.768 163.766 82.1582 148.041C56.8503 140.177 36.4062 130.824 22.2998 120.461C8.18335 110.091 0.5 98.7777 0.5 87C0.5 75.2223 8.18335 63.9092 22.2998 53.5391C36.4062 43.1764 56.8503 33.8225 82.1582 25.959C132.768 10.2337 202.716 0.5 280 0.5Z" fill="#011E4B" stroke="#3CA0DB"/>
</svg>
