<svg width="5757" height="48" viewBox="0 0 5757 48" fill="none" xmlns="http://www.w3.org/2000/svg">
<path d="M16.063 11.4899C14.4075 -0.9231 5.80742 9.99644 1 15.2339L1.09094 47H360.607L360.516 12.7379C359.175 8.27023 353.94 16.1565 351.528 18.2845C346.814 22.4427 344.524 22.7217 338.878 22.7217C335.963 22.7217 331.609 19.6758 329.058 17.1752C325.303 13.4949 321.646 12.2401 317.74 10.3806C311.995 7.64571 312.688 21.4349 306.588 15.7885C300.465 10.1201 302.639 1.44372 295.27 11.4899C289.331 19.5863 284.087 20.8798 276.629 20.2258C270.516 19.6897 269.69 19.881 266.892 11.4899C263.139 0.236029 247.765 20.9421 241.01 9.6873C237.14 3.23826 234.546 13.7602 230.94 15.0952C226.541 16.7242 225.708 11.0973 221.203 15.7885C218.344 18.7661 217.958 19.0702 214.462 20.3644C211.981 21.2831 212.45 26.6563 209.969 27.575C203.775 29.8683 203.087 26.0926 199.899 20.7804C197.689 17.0987 190.515 21.7694 187.499 18.9778C182.47 14.3232 182.172 20.6742 178.095 12.1833C177.321 10.5724 178.571 3.03143 176.93 3.03143C173.956 3.03143 170.742 7.3593 167.609 7.746C161.808 8.46196 150.199 28.5879 147.719 14.1245C146.569 7.4206 147.381 -2.44157 141.81 2.19944C135.709 7.28221 131.742 15.2339 124.584 15.2339C122.087 15.2339 120.117 17.7298 117.843 17.7298C115.602 17.7298 116.717 12.4464 114.847 10.7966C111.695 8.01663 108.877 20.2728 105.859 13.9859C103.618 9.31985 98.0798 11.0374 95.3729 13.2926C90.9382 16.9871 90.3002 6.52065 85.636 12.7379C84.1902 14.6651 77.2079 21.0271 75.2333 20.0871C71.4126 18.2682 73.6288 8.84867 68.0763 17.1752C63.8884 23.4553 62.6774 22.6673 57.2576 20.0871C54.3354 18.696 58.5091 -0.149985 53.4294 13.2926C48.9304 25.1983 47.217 21.8568 42.1945 11.6286C36.6488 0.334943 33.9039 9.12501 28.2966 15.2339C24.7625 19.084 17.2405 20.3186 16.063 11.4899Z" fill="white"/>
<path d="M375.579 11.4899C373.923 -0.9231 365.323 9.99644 360.516 15.2339L360.607 47H720.122L720.031 12.7379C718.691 8.27023 713.456 16.1565 711.044 18.2845C706.33 22.4427 704.04 22.7217 698.394 22.7217C695.478 22.7217 691.125 19.6758 688.574 17.1752C684.819 13.4949 681.162 12.2401 677.256 10.3806C671.511 7.64571 672.204 21.4349 666.104 15.7885C659.98 10.1201 662.155 1.44372 654.786 11.4899C648.847 19.5863 643.603 20.8798 636.144 20.2258C630.032 19.6897 629.205 19.881 626.408 11.4899C622.655 0.236029 607.281 20.9421 600.526 9.6873C596.655 3.23826 594.061 13.7602 590.456 15.0952C586.056 16.7242 585.224 11.0973 580.719 15.7885C577.86 18.7661 577.473 19.0702 573.978 20.3644C571.497 21.2831 571.965 26.6563 569.484 27.575C563.291 29.8683 562.603 26.0926 559.414 20.7804C557.205 17.0987 550.03 21.7694 547.015 18.9778C541.986 14.3232 541.687 20.6742 537.61 12.1833C536.837 10.5724 538.086 3.03143 536.445 3.03143C533.472 3.03143 530.258 7.3593 527.125 7.746C521.324 8.46196 509.715 28.5879 507.235 14.1245C506.085 7.4206 506.897 -2.44157 501.326 2.19944C495.225 7.28221 491.258 15.2339 484.099 15.2339C481.602 15.2339 479.633 17.7298 477.358 17.7298C475.118 17.7298 476.233 12.4464 474.362 10.7966C471.211 8.01663 468.393 20.2728 465.374 13.9859C463.134 9.31985 457.596 11.0374 454.889 13.2926C450.454 16.9871 449.816 6.52065 445.152 12.7379C443.706 14.6651 436.724 21.0271 434.749 20.0871C430.928 18.2682 433.145 8.84867 427.592 17.1752C423.404 23.4553 422.193 22.6673 416.773 20.0871C413.851 18.696 418.025 -0.149985 412.945 13.2926C408.446 25.1983 406.733 21.8568 401.71 11.6286C396.165 0.334943 393.42 9.12501 387.812 15.2339C384.278 19.084 376.756 20.3186 375.579 11.4899Z" fill="white"/>
<path d="M735.094 11.4899C733.439 -0.9231 724.839 9.99644 720.031 15.2339L720.122 47H1079.64L1079.55 12.7379C1078.21 8.27023 1072.97 16.1565 1070.56 18.2845C1065.85 22.4427 1063.56 22.7217 1057.91 22.7217C1054.99 22.7217 1050.64 19.6758 1048.09 17.1752C1044.33 13.4949 1040.68 12.2401 1036.77 10.3806C1031.03 7.64571 1031.72 21.4349 1025.62 15.7885C1019.5 10.1201 1021.67 1.44372 1014.3 11.4899C1008.36 19.5863 1003.12 20.8798 995.66 20.2258C989.547 19.6897 988.721 19.881 985.923 11.4899C982.171 0.236029 966.796 20.9421 960.042 9.6873C956.171 3.23826 953.577 13.7602 949.972 15.0952C945.572 16.7242 944.74 11.0973 940.235 15.7885C937.376 18.7661 936.989 19.0702 933.494 20.3644C931.013 21.2831 931.481 26.6563 929 27.575C922.806 29.8683 922.118 26.0926 918.93 20.7804C916.721 17.0987 909.546 21.7694 906.53 18.9778C901.502 14.3232 901.203 20.6742 897.126 12.1833C896.353 10.5724 897.602 3.03143 895.961 3.03143C892.987 3.03143 889.774 7.3593 886.64 7.746C880.839 8.46196 869.231 28.5879 866.75 14.1245C865.601 7.4206 866.412 -2.44157 860.842 2.19944C854.741 7.28221 850.774 15.2339 843.615 15.2339C841.118 15.2339 839.149 17.7298 836.874 17.7298C834.633 17.7298 835.748 12.4464 833.878 10.7966C830.727 8.01663 827.909 20.2728 824.89 13.9859C822.65 9.31985 817.111 11.0374 814.404 13.2926C809.97 16.9871 809.332 6.52065 804.667 12.7379C803.222 14.6651 796.239 21.0271 794.265 20.0871C790.444 18.2682 792.66 8.84867 787.108 17.1752C782.92 23.4553 781.709 22.6673 776.289 20.0871C773.367 18.696 777.541 -0.149985 772.461 13.2926C767.962 25.1983 766.248 21.8568 761.226 11.6286C755.68 0.334943 752.935 9.12501 747.328 15.2339C743.794 19.084 736.272 20.3186 735.094 11.4899Z" fill="white"/>
<path d="M1083.62 11.4899C1081.97 -0.9231 1073.37 9.99644 1068.56 15.2339L1068.65 47H1428.08L1427.99 12.7379C1426.65 8.27023 1421.41 16.1565 1419 18.2845C1414.29 22.4427 1412 22.7217 1406.35 22.7217C1403.44 22.7217 1399.09 19.6758 1396.54 17.1752C1392.78 13.4949 1389.13 12.2401 1385.22 10.3806C1379.48 7.64571 1380.17 21.4349 1374.07 15.7885C1367.95 10.1201 1370.13 1.44372 1362.76 11.4899C1356.82 19.5863 1351.58 20.8798 1344.12 20.2258C1338.01 19.6897 1337.18 19.881 1334.39 11.4899C1330.64 0.236029 1315.26 20.9421 1308.51 9.6873C1304.64 3.23826 1302.05 13.7602 1298.44 15.0952C1294.05 16.7242 1293.21 11.0973 1288.71 15.7885C1285.85 18.7661 1285.46 19.0702 1281.97 20.3644C1279.49 21.2831 1279.96 26.6563 1277.48 27.575C1271.29 29.8683 1270.6 26.0926 1267.41 20.7804C1265.2 17.0987 1258.03 21.7694 1255.01 18.9778C1249.99 14.3232 1249.69 20.6742 1245.61 12.1833C1244.84 10.5724 1246.09 3.03143 1244.45 3.03143C1241.47 3.03143 1238.26 7.3593 1235.13 7.746C1229.33 8.46196 1217.72 28.5879 1215.24 14.1245C1214.09 7.4206 1214.91 -2.44157 1209.34 2.19944C1203.24 7.28221 1199.27 15.2339 1192.11 15.2339C1189.62 15.2339 1187.65 17.7298 1185.38 17.7298C1183.13 17.7298 1184.25 12.4464 1182.38 10.7966C1179.23 8.01663 1176.41 20.2728 1173.39 13.9859C1171.15 9.31985 1165.62 11.0374 1162.91 13.2926C1158.48 16.9871 1157.84 6.52065 1153.18 12.7379C1151.73 14.6651 1144.75 21.0271 1142.78 20.0871C1138.96 18.2682 1141.17 8.84867 1135.62 17.1752C1131.43 23.4553 1130.22 22.6673 1124.81 20.0871C1121.88 18.696 1126.06 -0.149985 1120.98 13.2926C1116.48 25.1983 1114.77 21.8568 1109.75 11.6286C1104.2 0.334943 1101.46 9.12501 1095.85 15.2339C1092.32 19.084 1084.8 20.3186 1083.62 11.4899Z" fill="white"/>
<path d="M1443.14 26.1571C1441.49 18.8712 1432.89 25.2805 1428.08 28.3547L1428.17 47H1787.68L1787.59 26.8896C1786.25 24.2673 1781.02 28.8962 1778.61 30.1452C1773.89 32.5859 1771.6 32.7497 1765.96 32.7497C1763.04 32.7497 1758.69 30.9619 1756.14 29.4941C1752.38 27.334 1748.72 26.5975 1744.82 25.506C1739.07 23.9007 1739.77 31.9944 1733.67 28.6802C1727.54 25.3531 1729.72 20.2604 1722.35 26.1571C1716.41 30.9093 1711.16 31.6686 1703.71 31.2847C1697.59 30.97 1696.77 31.0823 1693.97 26.1571C1690.22 19.5516 1674.84 31.7052 1668.09 25.0991C1664.22 21.3138 1661.62 27.4897 1658.02 28.2733C1653.62 29.2294 1652.79 25.9267 1648.28 28.6802C1645.42 30.4279 1645.04 30.6064 1641.54 31.3661C1639.06 31.9053 1639.53 35.0591 1637.05 35.5983C1630.85 36.9444 1630.16 34.7283 1626.98 31.6102C1624.77 29.4492 1617.59 32.1908 1614.58 30.5522C1609.55 27.8201 1609.25 31.5479 1605.17 26.5641C1604.4 25.6186 1605.65 21.1924 1604.01 21.1924C1601.03 21.1924 1597.82 23.7326 1594.69 23.9596C1588.89 24.3798 1577.28 36.1929 1574.8 27.7035C1573.65 23.7686 1574.46 17.9799 1568.89 20.704C1562.79 23.6874 1558.82 28.3547 1551.66 28.3547C1549.16 28.3547 1547.2 29.8197 1544.92 29.8197C1542.68 29.8197 1543.79 26.7185 1541.92 25.7502C1538.77 24.1185 1535.95 31.3123 1532.94 27.6222C1530.7 24.8834 1525.16 25.8915 1522.45 27.2152C1518.02 29.3837 1517.38 23.2404 1512.71 26.8896C1511.27 28.0208 1504.29 31.755 1502.31 31.2033C1498.49 30.1357 1500.71 24.6068 1495.15 29.4941C1490.97 33.1803 1489.76 32.7178 1484.34 31.2033C1481.41 30.3868 1485.59 19.325 1480.51 27.2152C1476.01 34.2033 1474.29 32.242 1469.27 26.2385C1463.73 19.6096 1460.98 24.769 1455.37 28.3547C1451.84 30.6145 1444.32 31.3392 1443.14 26.1571Z" fill="white"/>
<path d="M1164.52 11.4899C1162.86 -0.9231 1154.26 9.99644 1149.45 15.2339L1149.54 47H1509.06L1508.97 12.7379C1507.63 8.27023 1502.39 16.1565 1499.98 18.2845C1495.27 22.4427 1492.98 22.7217 1487.33 22.7217C1484.42 22.7217 1480.06 19.6758 1477.51 17.1752C1473.76 13.4949 1470.1 12.2401 1466.19 10.3806C1460.45 7.64571 1461.14 21.4349 1455.04 15.7885C1448.92 10.1201 1451.09 1.44372 1443.72 11.4899C1437.78 19.5863 1432.54 20.8798 1425.08 20.2258C1418.97 19.6897 1418.14 19.881 1415.34 11.4899C1411.59 0.236029 1396.22 20.9421 1389.46 9.6873C1385.59 3.23826 1383 13.7602 1379.39 15.0952C1374.99 16.7242 1374.16 11.0973 1369.66 15.7885C1366.8 18.7661 1366.41 19.0702 1362.92 20.3644C1360.43 21.2831 1360.9 26.6563 1358.42 27.575C1352.23 29.8683 1351.54 26.0926 1348.35 20.7804C1346.14 17.0987 1338.97 21.7694 1335.95 18.9778C1330.92 14.3232 1330.62 20.6742 1326.55 12.1833C1325.77 10.5724 1327.02 3.03143 1325.38 3.03143C1322.41 3.03143 1319.2 7.3593 1316.06 7.746C1310.26 8.46196 1298.65 28.5879 1296.17 14.1245C1295.02 7.4206 1295.83 -2.44157 1290.26 2.19944C1284.16 7.28221 1280.2 15.2339 1273.04 15.2339C1270.54 15.2339 1268.57 17.7298 1266.3 17.7298C1264.05 17.7298 1265.17 12.4464 1263.3 10.7966C1260.15 8.01663 1257.33 20.2728 1254.31 13.9859C1252.07 9.31985 1246.53 11.0374 1243.83 13.2926C1239.39 16.9871 1238.75 6.52065 1234.09 12.7379C1232.64 14.6651 1225.66 21.0271 1223.69 20.0871C1219.87 18.2682 1222.08 8.84867 1216.53 17.1752C1212.34 23.4553 1211.13 22.6673 1205.71 20.0871C1202.79 18.696 1206.96 -0.149985 1201.88 13.2926C1197.38 25.1983 1195.67 21.8568 1190.65 11.6286C1185.1 0.334943 1182.36 9.12501 1176.75 15.2339C1173.22 19.084 1165.69 20.3186 1164.52 11.4899Z" fill="white"/>
<path d="M1526.38 11.4899C1524.47 -0.9231 1514.55 9.99644 1509 15.2339L1509.1 47H1924L1923.89 12.7379C1922.35 8.27023 1916.31 16.1565 1913.52 18.2845C1908.08 22.4427 1905.44 22.7217 1898.92 22.7217C1895.56 22.7217 1890.54 19.6758 1887.59 17.1752C1883.26 13.4949 1879.04 12.2401 1874.53 10.3806C1867.9 7.64571 1868.7 21.4349 1861.66 15.7885C1854.59 10.1201 1857.1 1.44372 1848.6 11.4899C1841.75 19.5863 1835.69 20.8798 1827.09 20.2258C1820.03 19.6897 1819.08 19.881 1815.85 11.4899C1811.52 0.236029 1793.78 20.9421 1785.98 9.6873C1781.51 3.23826 1778.52 13.7602 1774.36 15.0952C1769.28 16.7242 1768.32 11.0973 1763.12 15.7885C1759.82 18.7661 1759.38 19.0702 1755.34 20.3644C1752.48 21.2831 1753.02 26.6563 1750.16 27.575C1743.01 29.8683 1742.22 26.0926 1738.54 20.7804C1735.99 17.0987 1727.71 21.7694 1724.23 18.9778C1718.42 14.3232 1718.08 20.6742 1713.37 12.1833C1712.48 10.5724 1713.92 3.03143 1712.03 3.03143C1708.6 3.03143 1704.89 7.3593 1701.27 7.746C1694.58 8.46196 1681.18 28.5879 1678.32 14.1245C1676.99 7.4206 1677.93 -2.44157 1671.5 2.19944C1664.46 7.28221 1659.88 15.2339 1651.62 15.2339C1648.74 15.2339 1646.47 17.7298 1643.84 17.7298C1641.26 17.7298 1642.54 12.4464 1640.38 10.7966C1636.75 8.01663 1633.49 20.2728 1630.01 13.9859C1627.43 9.31985 1621.03 11.0374 1617.91 13.2926C1612.79 16.9871 1612.06 6.52065 1606.67 12.7379C1605 14.6651 1596.95 21.0271 1594.67 20.0871C1590.26 18.2682 1592.82 8.84867 1586.41 17.1752C1581.58 23.4553 1580.18 22.6673 1573.92 20.0871C1570.55 18.696 1575.37 -0.149985 1569.51 13.2926C1564.31 25.1983 1562.34 21.8568 1556.54 11.6286C1550.14 0.334943 1546.97 9.12501 1540.5 15.2339C1536.42 19.084 1527.74 20.3186 1526.38 11.4899Z" fill="white"/>
<path d="M1932.06 11.4899C1930.41 -0.9231 1921.81 9.99644 1917 15.2339L1917.09 47H2276.61L2276.52 12.7379C2275.17 8.27023 2269.94 16.1565 2267.53 18.2845C2262.81 22.4427 2260.52 22.7217 2254.88 22.7217C2251.96 22.7217 2247.61 19.6758 2245.06 17.1752C2241.3 13.4949 2237.65 12.2401 2233.74 10.3806C2228 7.64571 2228.69 21.4349 2222.59 15.7885C2216.46 10.1201 2218.64 1.44372 2211.27 11.4899C2205.33 19.5863 2200.09 20.8798 2192.63 20.2258C2186.52 19.6897 2185.69 19.881 2182.89 11.4899C2179.14 0.236029 2163.76 20.9421 2157.01 9.6873C2153.14 3.23826 2150.55 13.7602 2146.94 15.0952C2142.54 16.7242 2141.71 11.0973 2137.2 15.7885C2134.34 18.7661 2133.96 19.0702 2130.46 20.3644C2127.98 21.2831 2128.45 26.6563 2125.97 27.575C2119.77 29.8683 2119.09 26.0926 2115.9 20.7804C2113.69 17.0987 2106.51 21.7694 2103.5 18.9778C2098.47 14.3232 2098.17 20.6742 2094.09 12.1833C2093.32 10.5724 2094.57 3.03143 2092.93 3.03143C2089.96 3.03143 2086.74 7.3593 2083.61 7.746C2077.81 8.46196 2066.2 28.5879 2063.72 14.1245C2062.57 7.4206 2063.38 -2.44157 2057.81 2.19944C2051.71 7.28221 2047.74 15.2339 2040.58 15.2339C2038.09 15.2339 2036.12 17.7298 2033.84 17.7298C2031.6 17.7298 2032.72 12.4464 2030.85 10.7966C2027.7 8.01663 2024.88 20.2728 2021.86 13.9859C2019.62 9.31985 2014.08 11.0374 2011.37 13.2926C2006.94 16.9871 2006.3 6.52065 2001.64 12.7379C2000.19 14.6651 1993.21 21.0271 1991.23 20.0871C1987.41 18.2682 1989.63 8.84867 1984.08 17.1752C1979.89 23.4553 1978.68 22.6673 1973.26 20.0871C1970.34 18.696 1974.51 -0.149985 1969.43 13.2926C1964.93 25.1983 1963.22 21.8568 1958.19 11.6286C1952.65 0.334943 1949.9 9.12501 1944.3 15.2339C1940.76 19.084 1933.24 20.3186 1932.06 11.4899Z" fill="white"/>
<path d="M2291.58 11.4899C2289.92 -0.9231 2281.32 9.99644 2276.52 15.2339L2276.61 47H2636.12L2636.03 12.7379C2634.69 8.27023 2629.46 16.1565 2627.04 18.2845C2622.33 22.4427 2620.04 22.7217 2614.39 22.7217C2611.48 22.7217 2607.13 19.6758 2604.57 17.1752C2600.82 13.4949 2597.16 12.2401 2593.26 10.3806C2587.51 7.64571 2588.2 21.4349 2582.1 15.7885C2575.98 10.1201 2578.16 1.44372 2570.79 11.4899C2564.85 19.5863 2559.6 20.8798 2552.14 20.2258C2546.03 19.6897 2545.21 19.881 2542.41 11.4899C2538.66 0.236029 2523.28 20.9421 2516.53 9.6873C2512.66 3.23826 2510.06 13.7602 2506.46 15.0952C2502.06 16.7242 2501.22 11.0973 2496.72 15.7885C2493.86 18.7661 2493.47 19.0702 2489.98 20.3644C2487.5 21.2831 2487.97 26.6563 2485.48 27.575C2479.29 29.8683 2478.6 26.0926 2475.41 20.7804C2473.2 17.0987 2466.03 21.7694 2463.01 18.9778C2457.99 14.3232 2457.69 20.6742 2453.61 12.1833C2452.84 10.5724 2454.09 3.03143 2452.45 3.03143C2449.47 3.03143 2446.26 7.3593 2443.12 7.746C2437.32 8.46196 2425.71 28.5879 2423.23 14.1245C2422.09 7.4206 2422.9 -2.44157 2417.33 2.19944C2411.23 7.28221 2407.26 15.2339 2400.1 15.2339C2397.6 15.2339 2395.63 17.7298 2393.36 17.7298C2391.12 17.7298 2392.23 12.4464 2390.36 10.7966C2387.21 8.01663 2384.39 20.2728 2381.37 13.9859C2379.13 9.31985 2373.6 11.0374 2370.89 13.2926C2366.45 16.9871 2365.82 6.52065 2361.15 12.7379C2359.71 14.6651 2352.72 21.0271 2350.75 20.0871C2346.93 18.2682 2349.14 8.84867 2343.59 17.1752C2339.4 23.4553 2338.19 22.6673 2332.77 20.0871C2329.85 18.696 2334.02 -0.149985 2328.95 13.2926C2324.45 25.1983 2322.73 21.8568 2317.71 11.6286C2312.16 0.334943 2309.42 9.12501 2303.81 15.2339C2300.28 19.084 2292.76 20.3186 2291.58 11.4899Z" fill="white"/>
<path d="M2651.09 11.4899C2649.44 -0.9231 2640.84 9.99644 2636.03 15.2339L2636.12 47H2995.64L2995.55 12.7379C2994.21 8.27023 2988.97 16.1565 2986.56 18.2845C2981.85 22.4427 2979.56 22.7217 2973.91 22.7217C2970.99 22.7217 2966.64 19.6758 2964.09 17.1752C2960.33 13.4949 2956.68 12.2401 2952.77 10.3806C2947.03 7.64571 2947.72 21.4349 2941.62 15.7885C2935.5 10.1201 2937.67 1.44372 2930.3 11.4899C2924.36 19.5863 2919.12 20.8798 2911.66 20.2258C2905.55 19.6897 2904.72 19.881 2901.92 11.4899C2898.17 0.236029 2882.8 20.9421 2876.04 9.6873C2872.17 3.23826 2869.58 13.7602 2865.97 15.0952C2861.57 16.7242 2860.74 11.0973 2856.23 15.7885C2853.38 18.7661 2852.99 19.0702 2849.49 20.3644C2847.01 21.2831 2847.48 26.6563 2845 27.575C2838.81 29.8683 2838.12 26.0926 2834.93 20.7804C2832.72 17.0987 2825.55 21.7694 2822.53 18.9778C2817.5 14.3232 2817.2 20.6742 2813.13 12.1833C2812.35 10.5724 2813.6 3.03143 2811.96 3.03143C2808.99 3.03143 2805.77 7.3593 2802.64 7.746C2796.84 8.46196 2785.23 28.5879 2782.75 14.1245C2781.6 7.4206 2782.41 -2.44157 2776.84 2.19944C2770.74 7.28221 2766.77 15.2339 2759.61 15.2339C2757.12 15.2339 2755.15 17.7298 2752.87 17.7298C2750.63 17.7298 2751.75 12.4464 2749.88 10.7966C2746.73 8.01663 2743.91 20.2728 2740.89 13.9859C2738.65 9.31985 2733.11 11.0374 2730.4 13.2926C2725.97 16.9871 2725.33 6.52065 2720.67 12.7379C2719.22 14.6651 2712.24 21.0271 2710.26 20.0871C2706.44 18.2682 2708.66 8.84867 2703.11 17.1752C2698.92 23.4553 2697.71 22.6673 2692.29 20.0871C2689.37 18.696 2693.54 -0.149985 2688.46 13.2926C2683.96 25.1983 2682.25 21.8568 2677.23 11.6286C2671.68 0.334943 2668.94 9.12501 2663.33 15.2339C2659.79 19.084 2652.27 20.3186 2651.09 11.4899Z" fill="white"/>
<path d="M2999.62 11.4899C2997.97 -0.9231 2989.37 9.99644 2984.56 15.2339L2984.65 47H3344.08L3343.99 12.7379C3342.65 8.27023 3337.41 16.1565 3335 18.2845C3330.29 22.4427 3328 22.7217 3322.35 22.7217C3319.44 22.7217 3315.09 19.6758 3312.54 17.1752C3308.78 13.4949 3305.13 12.2401 3301.22 10.3806C3295.48 7.64571 3296.17 21.4349 3290.07 15.7885C3283.95 10.1201 3286.13 1.44372 3278.76 11.4899C3272.82 19.5863 3267.58 20.8798 3260.12 20.2258C3254.01 19.6897 3253.18 19.881 3250.39 11.4899C3246.64 0.236029 3231.26 20.9421 3224.51 9.6873C3220.64 3.23826 3218.05 13.7602 3214.44 15.0952C3210.05 16.7242 3209.21 11.0973 3204.71 15.7885C3201.85 18.7661 3201.46 19.0702 3197.97 20.3644C3195.49 21.2831 3195.96 26.6563 3193.48 27.575C3187.29 29.8683 3186.6 26.0926 3183.41 20.7804C3181.2 17.0987 3174.03 21.7694 3171.01 18.9778C3165.99 14.3232 3165.69 20.6742 3161.61 12.1833C3160.84 10.5724 3162.09 3.03143 3160.45 3.03143C3157.47 3.03143 3154.26 7.3593 3151.13 7.746C3145.33 8.46196 3133.72 28.5879 3131.24 14.1245C3130.09 7.4206 3130.91 -2.44157 3125.34 2.19944C3119.24 7.28221 3115.27 15.2339 3108.11 15.2339C3105.62 15.2339 3103.65 17.7298 3101.38 17.7298C3099.13 17.7298 3100.25 12.4464 3098.38 10.7966C3095.23 8.01663 3092.41 20.2728 3089.39 13.9859C3087.15 9.31985 3081.62 11.0374 3078.91 13.2926C3074.48 16.9871 3073.84 6.52065 3069.18 12.7379C3067.73 14.6651 3060.75 21.0271 3058.78 20.0871C3054.96 18.2682 3057.17 8.84867 3051.62 17.1752C3047.43 23.4553 3046.22 22.6673 3040.81 20.0871C3037.88 18.696 3042.06 -0.149985 3036.98 13.2926C3032.48 25.1983 3030.77 21.8568 3025.75 11.6286C3020.2 0.334943 3017.46 9.12501 3011.85 15.2339C3008.32 19.084 3000.8 20.3186 2999.62 11.4899Z" fill="white"/>
<path d="M3359.14 26.1571C3357.49 18.8712 3348.89 25.2805 3344.08 28.3547L3344.17 47H3703.68L3703.59 26.8896C3702.25 24.2673 3697.02 28.8962 3694.61 30.1452C3689.89 32.5859 3687.6 32.7497 3681.96 32.7497C3679.04 32.7497 3674.69 30.9619 3672.14 29.4941C3668.38 27.334 3664.72 26.5975 3660.82 25.506C3655.07 23.9007 3655.77 31.9944 3649.67 28.6802C3643.54 25.3531 3645.72 20.2604 3638.35 26.1571C3632.41 30.9093 3627.16 31.6686 3619.71 31.2847C3613.59 30.97 3612.77 31.0823 3609.97 26.1571C3606.22 19.5516 3590.84 31.7052 3584.09 25.0991C3580.22 21.3138 3577.62 27.4897 3574.02 28.2733C3569.62 29.2294 3568.79 25.9267 3564.28 28.6802C3561.42 30.4279 3561.04 30.6064 3557.54 31.3661C3555.06 31.9053 3555.53 35.0591 3553.05 35.5983C3546.85 36.9444 3546.16 34.7283 3542.98 31.6102C3540.77 29.4492 3533.59 32.1908 3530.58 30.5522C3525.55 27.8201 3525.25 31.5479 3521.17 26.5641C3520.4 25.6186 3521.65 21.1924 3520.01 21.1924C3517.03 21.1924 3513.82 23.7326 3510.69 23.9596C3504.89 24.3798 3493.28 36.1929 3490.8 27.7035C3489.65 23.7686 3490.46 17.9799 3484.89 20.704C3478.79 23.6874 3474.82 28.3547 3467.66 28.3547C3465.16 28.3547 3463.2 29.8197 3460.92 29.8197C3458.68 29.8197 3459.79 26.7185 3457.92 25.7502C3454.77 24.1185 3451.96 31.3123 3448.94 27.6222C3446.7 24.8834 3441.16 25.8915 3438.45 27.2152C3434.02 29.3837 3433.38 23.2404 3428.71 26.8896C3427.27 28.0208 3420.29 31.755 3418.31 31.2033C3414.49 30.1357 3416.71 24.6068 3411.15 29.4941C3406.97 33.1803 3405.76 32.7178 3400.34 31.2033C3397.41 30.3868 3401.59 19.325 3396.51 27.2152C3392.01 34.2033 3390.29 32.242 3385.27 26.2385C3379.73 19.6096 3376.98 24.769 3371.37 28.3547C3367.84 30.6145 3360.32 31.3392 3359.14 26.1571Z" fill="white"/>
<path d="M3080.52 11.4899C3078.86 -0.9231 3070.26 9.99644 3065.45 15.2339L3065.54 47H3425.06L3424.97 12.7379C3423.63 8.27023 3418.39 16.1565 3415.98 18.2845C3411.27 22.4427 3408.98 22.7217 3403.33 22.7217C3400.42 22.7217 3396.06 19.6758 3393.51 17.1752C3389.76 13.4949 3386.1 12.2401 3382.19 10.3806C3376.45 7.64571 3377.14 21.4349 3371.04 15.7885C3364.92 10.1201 3367.09 1.44372 3359.72 11.4899C3353.78 19.5863 3348.54 20.8798 3341.08 20.2258C3334.97 19.6897 3334.14 19.881 3331.34 11.4899C3327.59 0.236029 3312.22 20.9421 3305.46 9.6873C3301.59 3.23826 3299 13.7602 3295.39 15.0952C3290.99 16.7242 3290.16 11.0973 3285.66 15.7885C3282.8 18.7661 3282.41 19.0702 3278.92 20.3644C3276.43 21.2831 3276.9 26.6563 3274.42 27.575C3268.23 29.8683 3267.54 26.0926 3264.35 20.7804C3262.14 17.0987 3254.97 21.7694 3251.95 18.9778C3246.92 14.3232 3246.62 20.6742 3242.55 12.1833C3241.77 10.5724 3243.02 3.03143 3241.38 3.03143C3238.41 3.03143 3235.2 7.3593 3232.06 7.746C3226.26 8.46196 3214.65 28.5879 3212.17 14.1245C3211.02 7.4206 3211.83 -2.44157 3206.26 2.19944C3200.16 7.28221 3196.2 15.2339 3189.04 15.2339C3186.54 15.2339 3184.57 17.7298 3182.3 17.7298C3180.05 17.7298 3181.17 12.4464 3179.3 10.7966C3176.15 8.01663 3173.33 20.2728 3170.31 13.9859C3168.07 9.31985 3162.53 11.0374 3159.83 13.2926C3155.39 16.9871 3154.75 6.52065 3150.09 12.7379C3148.64 14.6651 3141.66 21.0271 3139.69 20.0871C3135.87 18.2682 3138.08 8.84867 3132.53 17.1752C3128.34 23.4553 3127.13 22.6673 3121.71 20.0871C3118.79 18.696 3122.96 -0.149985 3117.88 13.2926C3113.38 25.1983 3111.67 21.8568 3106.65 11.6286C3101.1 0.334943 3098.36 9.12501 3092.75 15.2339C3089.22 19.084 3081.69 20.3186 3080.52 11.4899Z" fill="white"/>
<path d="M3442.38 11.4899C3440.47 -0.9231 3430.55 9.99644 3425 15.2339L3425.1 47H3840L3839.9 12.7379C3838.35 8.27023 3832.31 16.1565 3829.52 18.2845C3824.08 22.4427 3821.44 22.7217 3814.92 22.7217C3811.56 22.7217 3806.54 19.6758 3803.59 17.1752C3799.26 13.4949 3795.04 12.2401 3790.53 10.3806C3783.9 7.64571 3784.7 21.4349 3777.66 15.7885C3770.59 10.1201 3773.1 1.44372 3764.6 11.4899C3757.75 19.5863 3751.69 20.8798 3743.09 20.2258C3736.03 19.6897 3735.08 19.881 3731.85 11.4899C3727.52 0.236029 3709.78 20.9421 3701.98 9.6873C3697.51 3.23826 3694.52 13.7602 3690.36 15.0952C3685.28 16.7242 3684.32 11.0973 3679.12 15.7885C3675.82 18.7661 3675.38 19.0702 3671.34 20.3644C3668.48 21.2831 3669.02 26.6563 3666.16 27.575C3659.01 29.8683 3658.22 26.0926 3654.54 20.7804C3651.99 17.0987 3643.71 21.7694 3640.23 18.9778C3634.42 14.3232 3634.08 20.6742 3629.37 12.1833C3628.48 10.5724 3629.92 3.03143 3628.03 3.03143C3624.6 3.03143 3620.89 7.3593 3617.27 7.746C3610.58 8.46196 3597.18 28.5879 3594.32 14.1245C3592.99 7.4206 3593.93 -2.44157 3587.5 2.19944C3580.46 7.28221 3575.88 15.2339 3567.62 15.2339C3564.74 15.2339 3562.47 17.7298 3559.84 17.7298C3557.26 17.7298 3558.54 12.4464 3556.38 10.7966C3552.75 8.01663 3549.49 20.2728 3546.01 13.9859C3543.43 9.31985 3537.03 11.0374 3533.91 13.2926C3528.79 16.9871 3528.06 6.52065 3522.67 12.7379C3521 14.6651 3512.95 21.0271 3510.67 20.0871C3506.26 18.2682 3508.82 8.84867 3502.41 17.1752C3497.58 23.4553 3496.18 22.6673 3489.92 20.0871C3486.55 18.696 3491.37 -0.149985 3485.51 13.2926C3480.31 25.1983 3478.34 21.8568 3472.54 11.6286C3466.14 0.334943 3462.97 9.12501 3456.5 15.2339C3452.42 19.084 3443.74 20.3186 3442.38 11.4899Z" fill="white"/>
<path d="M3848.06 11.4899C3846.41 -0.9231 3837.81 9.99644 3833 15.2339L3833.09 47H4192.61L4192.52 12.7379C4191.17 8.27023 4185.94 16.1565 4183.53 18.2845C4178.81 22.4427 4176.52 22.7217 4170.88 22.7217C4167.96 22.7217 4163.61 19.6758 4161.06 17.1752C4157.3 13.4949 4153.65 12.2401 4149.74 10.3806C4144 7.64571 4144.69 21.4349 4138.59 15.7885C4132.46 10.1201 4134.64 1.44372 4127.27 11.4899C4121.33 19.5863 4116.09 20.8798 4108.63 20.2258C4102.52 19.6897 4101.69 19.881 4098.89 11.4899C4095.14 0.236029 4079.76 20.9421 4073.01 9.6873C4069.14 3.23826 4066.55 13.7602 4062.94 15.0952C4058.54 16.7242 4057.71 11.0973 4053.2 15.7885C4050.34 18.7661 4049.96 19.0702 4046.46 20.3644C4043.98 21.2831 4044.45 26.6563 4041.97 27.575C4035.77 29.8683 4035.09 26.0926 4031.9 20.7804C4029.69 17.0987 4022.51 21.7694 4019.5 18.9778C4014.47 14.3232 4014.17 20.6742 4010.09 12.1833C4009.32 10.5724 4010.57 3.03143 4008.93 3.03143C4005.96 3.03143 4002.74 7.3593 3999.61 7.746C3993.81 8.46196 3982.2 28.5879 3979.72 14.1245C3978.57 7.4206 3979.38 -2.44157 3973.81 2.19944C3967.71 7.28221 3963.74 15.2339 3956.58 15.2339C3954.09 15.2339 3952.12 17.7298 3949.84 17.7298C3947.6 17.7298 3948.72 12.4464 3946.85 10.7966C3943.7 8.01663 3940.88 20.2728 3937.86 13.9859C3935.62 9.31985 3930.08 11.0374 3927.37 13.2926C3922.94 16.9871 3922.3 6.52065 3917.64 12.7379C3916.19 14.6651 3909.21 21.0271 3907.23 20.0871C3903.41 18.2682 3905.63 8.84867 3900.08 17.1752C3895.89 23.4553 3894.68 22.6673 3889.26 20.0871C3886.34 18.696 3890.51 -0.149985 3885.43 13.2926C3880.93 25.1983 3879.22 21.8568 3874.19 11.6286C3868.65 0.334943 3865.9 9.12501 3860.3 15.2339C3856.76 19.084 3849.24 20.3186 3848.06 11.4899Z" fill="white"/>
<path d="M4207.58 11.4899C4205.92 -0.9231 4197.32 9.99644 4192.52 15.2339L4192.61 47H4552.12L4552.03 12.7379C4550.69 8.27023 4545.46 16.1565 4543.04 18.2845C4538.33 22.4427 4536.04 22.7217 4530.39 22.7217C4527.48 22.7217 4523.13 19.6758 4520.57 17.1752C4516.82 13.4949 4513.16 12.2401 4509.26 10.3806C4503.51 7.64571 4504.2 21.4349 4498.1 15.7885C4491.98 10.1201 4494.16 1.44372 4486.79 11.4899C4480.85 19.5863 4475.6 20.8798 4468.14 20.2258C4462.03 19.6897 4461.21 19.881 4458.41 11.4899C4454.66 0.236029 4439.28 20.9421 4432.53 9.6873C4428.66 3.23826 4426.06 13.7602 4422.46 15.0952C4418.06 16.7242 4417.22 11.0973 4412.72 15.7885C4409.86 18.7661 4409.47 19.0702 4405.98 20.3644C4403.5 21.2831 4403.97 26.6563 4401.48 27.575C4395.29 29.8683 4394.6 26.0926 4391.41 20.7804C4389.2 17.0987 4382.03 21.7694 4379.01 18.9778C4373.99 14.3232 4373.69 20.6742 4369.61 12.1833C4368.84 10.5724 4370.09 3.03143 4368.45 3.03143C4365.47 3.03143 4362.26 7.3593 4359.12 7.746C4353.32 8.46196 4341.71 28.5879 4339.23 14.1245C4338.09 7.4206 4338.9 -2.44157 4333.33 2.19944C4327.23 7.28221 4323.26 15.2339 4316.1 15.2339C4313.6 15.2339 4311.63 17.7298 4309.36 17.7298C4307.12 17.7298 4308.23 12.4464 4306.36 10.7966C4303.21 8.01663 4300.39 20.2728 4297.37 13.9859C4295.13 9.31985 4289.6 11.0374 4286.89 13.2926C4282.45 16.9871 4281.82 6.52065 4277.15 12.7379C4275.71 14.6651 4268.72 21.0271 4266.75 20.0871C4262.93 18.2682 4265.14 8.84867 4259.59 17.1752C4255.4 23.4553 4254.19 22.6673 4248.77 20.0871C4245.85 18.696 4250.03 -0.149985 4244.95 13.2926C4240.45 25.1983 4238.73 21.8568 4233.71 11.6286C4228.16 0.334943 4225.42 9.12501 4219.81 15.2339C4216.28 19.084 4208.76 20.3186 4207.58 11.4899Z" fill="white"/>
<path d="M4567.09 11.4899C4565.44 -0.9231 4556.84 9.99644 4552.03 15.2339L4552.12 47H4911.64L4911.55 12.7379C4910.21 8.27023 4904.97 16.1565 4902.56 18.2845C4897.85 22.4427 4895.56 22.7217 4889.91 22.7217C4886.99 22.7217 4882.64 19.6758 4880.09 17.1752C4876.33 13.4949 4872.68 12.2401 4868.77 10.3806C4863.03 7.64571 4863.72 21.4349 4857.62 15.7885C4851.5 10.1201 4853.67 1.44372 4846.3 11.4899C4840.36 19.5863 4835.12 20.8798 4827.66 20.2258C4821.55 19.6897 4820.72 19.881 4817.92 11.4899C4814.17 0.236029 4798.8 20.9421 4792.04 9.6873C4788.17 3.23826 4785.58 13.7602 4781.97 15.0952C4777.57 16.7242 4776.74 11.0973 4772.23 15.7885C4769.38 18.7661 4768.99 19.0702 4765.49 20.3644C4763.01 21.2831 4763.48 26.6563 4761 27.575C4754.81 29.8683 4754.12 26.0926 4750.93 20.7804C4748.72 17.0987 4741.55 21.7694 4738.53 18.9778C4733.5 14.3232 4733.2 20.6742 4729.13 12.1833C4728.35 10.5724 4729.6 3.03143 4727.96 3.03143C4724.99 3.03143 4721.77 7.3593 4718.64 7.746C4712.84 8.46196 4701.23 28.5879 4698.75 14.1245C4697.6 7.4206 4698.41 -2.44157 4692.84 2.19944C4686.74 7.28221 4682.77 15.2339 4675.62 15.2339C4673.12 15.2339 4671.15 17.7298 4668.87 17.7298C4666.63 17.7298 4667.75 12.4464 4665.88 10.7966C4662.73 8.01663 4659.91 20.2728 4656.89 13.9859C4654.65 9.31985 4649.11 11.0374 4646.4 13.2926C4641.97 16.9871 4641.33 6.52065 4636.67 12.7379C4635.22 14.6651 4628.24 21.0271 4626.26 20.0871C4622.44 18.2682 4624.66 8.84867 4619.11 17.1752C4614.92 23.4553 4613.71 22.6673 4608.29 20.0871C4605.37 18.696 4609.54 -0.149985 4604.46 13.2926C4599.96 25.1983 4598.25 21.8568 4593.23 11.6286C4587.68 0.334943 4584.94 9.12501 4579.33 15.2339C4575.79 19.084 4568.27 20.3186 4567.09 11.4899Z" fill="white"/>
<path d="M4915.62 11.4899C4913.97 -0.9231 4905.37 9.99644 4900.56 15.2339L4900.65 47H5260.08L5259.99 12.7379C5258.65 8.27023 5253.41 16.1565 5251 18.2845C5246.29 22.4427 5244 22.7217 5238.35 22.7217C5235.44 22.7217 5231.09 19.6758 5228.54 17.1752C5224.78 13.4949 5221.13 12.2401 5217.22 10.3806C5211.48 7.64571 5212.17 21.4349 5206.07 15.7885C5199.95 10.1201 5202.13 1.44372 5194.76 11.4899C5188.82 19.5863 5183.58 20.8798 5176.12 20.2258C5170.01 19.6897 5169.18 19.881 5166.39 11.4899C5162.64 0.236029 5147.26 20.9421 5140.51 9.6873C5136.64 3.23826 5134.05 13.7602 5130.44 15.0952C5126.05 16.7242 5125.21 11.0973 5120.71 15.7885C5117.85 18.7661 5117.46 19.0702 5113.97 20.3644C5111.49 21.2831 5111.96 26.6563 5109.48 27.575C5103.29 29.8683 5102.6 26.0926 5099.41 20.7804C5097.2 17.0987 5090.03 21.7694 5087.01 18.9778C5081.99 14.3232 5081.69 20.6742 5077.61 12.1833C5076.84 10.5724 5078.09 3.03143 5076.45 3.03143C5073.47 3.03143 5070.26 7.3593 5067.13 7.746C5061.33 8.46196 5049.72 28.5879 5047.24 14.1245C5046.09 7.4206 5046.91 -2.44157 5041.34 2.19944C5035.24 7.28221 5031.27 15.2339 5024.11 15.2339C5021.62 15.2339 5019.65 17.7298 5017.38 17.7298C5015.13 17.7298 5016.25 12.4464 5014.38 10.7966C5011.23 8.01663 5008.41 20.2728 5005.39 13.9859C5003.15 9.31985 4997.62 11.0374 4994.91 13.2926C4990.48 16.9871 4989.84 6.52065 4985.18 12.7379C4983.73 14.6651 4976.75 21.0271 4974.78 20.0871C4970.96 18.2682 4973.17 8.84867 4967.62 17.1752C4963.43 23.4553 4962.22 22.6673 4956.81 20.0871C4953.88 18.696 4958.06 -0.149985 4952.98 13.2926C4948.48 25.1983 4946.77 21.8568 4941.75 11.6286C4936.2 0.334943 4933.46 9.12501 4927.85 15.2339C4924.32 19.084 4916.8 20.3186 4915.62 11.4899Z" fill="white"/>
<path d="M5275.14 26.1571C5273.49 18.8712 5264.89 25.2805 5260.08 28.3547L5260.17 47H5619.68L5619.59 26.8896C5618.25 24.2673 5613.02 28.8962 5610.61 30.1452C5605.89 32.5859 5603.6 32.7497 5597.96 32.7497C5595.04 32.7497 5590.69 30.9619 5588.14 29.4941C5584.38 27.334 5580.72 26.5975 5576.82 25.506C5571.07 23.9007 5571.77 31.9944 5565.67 28.6802C5559.54 25.3531 5561.72 20.2604 5554.35 26.1571C5548.41 30.9093 5543.16 31.6686 5535.71 31.2847C5529.59 30.97 5528.77 31.0823 5525.97 26.1571C5522.22 19.5516 5506.84 31.7052 5500.09 25.0991C5496.22 21.3138 5493.62 27.4897 5490.02 28.2733C5485.62 29.2294 5484.79 25.9267 5480.28 28.6802C5477.42 30.4279 5477.04 30.6064 5473.54 31.3661C5471.06 31.9053 5471.53 35.0591 5469.05 35.5983C5462.85 36.9444 5462.16 34.7283 5458.98 31.6102C5456.77 29.4492 5449.59 32.1908 5446.58 30.5522C5441.55 27.8201 5441.25 31.5479 5437.17 26.5641C5436.4 25.6186 5437.65 21.1924 5436.01 21.1924C5433.03 21.1924 5429.82 23.7326 5426.69 23.9596C5420.89 24.3798 5409.28 36.1929 5406.8 27.7035C5405.65 23.7686 5406.46 17.9799 5400.89 20.704C5394.79 23.6874 5390.82 28.3547 5383.66 28.3547C5381.16 28.3547 5379.19 29.8197 5376.92 29.8197C5374.68 29.8197 5375.79 26.7185 5373.92 25.7502C5370.77 24.1185 5367.96 31.3123 5364.94 27.6222C5362.7 24.8834 5357.16 25.8915 5354.45 27.2152C5350.02 29.3837 5349.38 23.2404 5344.71 26.8896C5343.27 28.0208 5336.29 31.755 5334.31 31.2033C5330.49 30.1357 5332.71 24.6068 5327.15 29.4941C5322.97 33.1803 5321.75 32.7178 5316.33 31.2033C5313.41 30.3868 5317.59 19.325 5312.51 27.2152C5308.01 34.2033 5306.29 32.242 5301.27 26.2385C5295.73 19.6096 5292.98 24.769 5287.37 28.3547C5283.84 30.6145 5276.32 31.3392 5275.14 26.1571Z" fill="white"/>
<path d="M4996.52 11.4899C4994.86 -0.9231 4986.26 9.99644 4981.45 15.2339L4981.54 47H5341.06L5340.97 12.7379C5339.63 8.27023 5334.39 16.1565 5331.98 18.2845C5327.27 22.4427 5324.98 22.7217 5319.33 22.7217C5316.42 22.7217 5312.06 19.6758 5309.51 17.1752C5305.76 13.4949 5302.1 12.2401 5298.19 10.3806C5292.45 7.64571 5293.14 21.4349 5287.04 15.7885C5280.92 10.1201 5283.09 1.44372 5275.72 11.4899C5269.78 19.5863 5264.54 20.8798 5257.08 20.2258C5250.97 19.6897 5250.14 19.881 5247.34 11.4899C5243.59 0.236029 5228.22 20.9421 5221.46 9.6873C5217.59 3.23826 5215 13.7602 5211.39 15.0952C5206.99 16.7242 5206.16 11.0973 5201.66 15.7885C5198.8 18.7661 5198.41 19.0702 5194.92 20.3644C5192.43 21.2831 5192.9 26.6563 5190.42 27.575C5184.23 29.8683 5183.54 26.0926 5180.35 20.7804C5178.14 17.0987 5170.97 21.7694 5167.95 18.9778C5162.92 14.3232 5162.62 20.6742 5158.55 12.1833C5157.77 10.5724 5159.02 3.03143 5157.38 3.03143C5154.41 3.03143 5151.2 7.3593 5148.06 7.746C5142.26 8.46196 5130.65 28.5879 5128.17 14.1245C5127.02 7.4206 5127.83 -2.44157 5122.26 2.19944C5116.16 7.28221 5112.2 15.2339 5105.04 15.2339C5102.54 15.2339 5100.57 17.7298 5098.3 17.7298C5096.06 17.7298 5097.17 12.4464 5095.3 10.7966C5092.15 8.01663 5089.33 20.2728 5086.31 13.9859C5084.07 9.31985 5078.53 11.0374 5075.83 13.2926C5071.39 16.9871 5070.75 6.52065 5066.09 12.7379C5064.64 14.6651 5057.66 21.0271 5055.69 20.0871C5051.87 18.2682 5054.08 8.84867 5048.53 17.1752C5044.34 23.4553 5043.13 22.6673 5037.71 20.0871C5034.79 18.696 5038.96 -0.149985 5033.88 13.2926C5029.38 25.1983 5027.67 21.8568 5022.65 11.6286C5017.1 0.334943 5014.36 9.12501 5008.75 15.2339C5005.22 19.084 4997.69 20.3186 4996.52 11.4899Z" fill="white"/>
<path d="M5358.38 11.4899C5356.47 -0.9231 5346.55 9.99644 5341 15.2339L5341.1 47H5756L5755.9 12.7379C5754.35 8.27023 5748.31 16.1565 5745.52 18.2845C5740.08 22.4427 5737.44 22.7217 5730.92 22.7217C5727.56 22.7217 5722.54 19.6758 5719.59 17.1752C5715.26 13.4949 5711.04 12.2401 5706.53 10.3806C5699.9 7.64571 5700.7 21.4349 5693.66 15.7885C5686.59 10.1201 5689.1 1.44372 5680.6 11.4899C5673.75 19.5863 5667.69 20.8798 5659.09 20.2258C5652.03 19.6897 5651.08 19.881 5647.85 11.4899C5643.52 0.236029 5625.78 20.9421 5617.98 9.6873C5613.51 3.23826 5610.52 13.7602 5606.36 15.0952C5601.28 16.7242 5600.32 11.0973 5595.12 15.7885C5591.82 18.7661 5591.38 19.0702 5587.34 20.3644C5584.48 21.2831 5585.02 26.6563 5582.16 27.575C5575.01 29.8683 5574.22 26.0926 5570.54 20.7804C5567.99 17.0987 5559.71 21.7694 5556.23 18.9778C5550.42 14.3232 5550.08 20.6742 5545.37 12.1833C5544.48 10.5724 5545.92 3.03143 5544.03 3.03143C5540.6 3.03143 5536.89 7.3593 5533.27 7.746C5526.58 8.46196 5513.18 28.5879 5510.32 14.1245C5508.99 7.4206 5509.93 -2.44157 5503.5 2.19944C5496.46 7.28221 5491.88 15.2339 5483.62 15.2339C5480.74 15.2339 5478.47 17.7298 5475.84 17.7298C5473.26 17.7298 5474.54 12.4464 5472.38 10.7966C5468.75 8.01663 5465.49 20.2728 5462.01 13.9859C5459.43 9.31985 5453.03 11.0374 5449.91 13.2926C5444.79 16.9871 5444.06 6.52065 5438.67 12.7379C5437 14.6651 5428.95 21.0271 5426.67 20.0871C5422.26 18.2682 5424.82 8.84867 5418.41 17.1752C5413.58 23.4553 5412.18 22.6673 5405.92 20.0871C5402.55 18.696 5407.37 -0.149985 5401.51 13.2926C5396.31 25.1983 5394.34 21.8568 5388.54 11.6286C5382.14 0.334943 5378.97 9.12501 5372.5 15.2339C5368.42 19.084 5359.74 20.3186 5358.38 11.4899Z" fill="white"/>
<path d="M360.607 47H1.09094L1 15.2339C5.80742 9.99644 14.4075 -0.9231 16.063 11.4899C17.2405 20.3186 24.7625 19.084 28.2966 15.2339C33.9039 9.12501 36.6488 0.334943 42.1945 11.6286C47.217 21.8568 48.9304 25.1983 53.4294 13.2926C58.5091 -0.149985 54.3354 18.696 57.2576 20.0871C62.6774 22.6673 63.8884 23.4553 68.0763 17.1752C73.6288 8.84867 71.4126 18.2682 75.2333 20.0871C77.2079 21.0271 84.1902 14.6651 85.636 12.7379C90.3002 6.52065 90.9382 16.9871 95.3729 13.2926C98.0798 11.0374 103.618 9.31985 105.859 13.9859C108.877 20.2728 111.695 8.01663 114.847 10.7966C116.717 12.4464 115.602 17.7298 117.843 17.7298C120.117 17.7298 122.087 15.2339 124.584 15.2339C131.742 15.2339 135.709 7.28221 141.81 2.19944C147.381 -2.44157 146.569 7.4206 147.719 14.1245C150.199 28.5879 161.808 8.46196 167.609 7.746C170.742 7.3593 173.956 3.03143 176.93 3.03143C178.571 3.03143 177.321 10.5724 178.095 12.1833C182.172 20.6742 182.47 14.3232 187.499 18.9778C190.515 21.7694 197.689 17.0987 199.899 20.7804C203.087 26.0926 203.775 29.8683 209.969 27.575C212.45 26.6563 211.981 21.2831 214.462 20.3644C217.958 19.0702 218.344 18.7661 221.203 15.7885C225.708 11.0973 226.541 16.7242 230.94 15.0952C234.546 13.7602 237.14 3.23826 241.01 9.6873C247.765 20.9421 263.139 0.236029 266.892 11.4899C269.69 19.881 270.516 19.6897 276.629 20.2258C284.087 20.8798 289.331 19.5863 295.27 11.4899C302.639 1.44372 300.465 10.1201 306.588 15.7885C312.688 21.4349 311.995 7.64571 317.74 10.3806C321.646 12.2401 325.303 13.4949 329.058 17.1752C331.609 19.6758 335.963 22.7217 338.878 22.7217C344.524 22.7217 346.814 22.4427 351.528 18.2845C353.94 16.1565 359.175 8.27023 360.516 12.7379L360.607 47ZM360.607 47L360.516 15.2339C365.323 9.99644 373.923 -0.9231 375.579 11.4899C376.756 20.3186 384.278 19.084 387.812 15.2339C393.42 9.12501 396.165 0.334943 401.71 11.6286C406.733 21.8568 408.446 25.1983 412.945 13.2926C418.025 -0.149985 413.851 18.696 416.773 20.0871C422.193 22.6673 423.404 23.4553 427.592 17.1752C433.145 8.84867 430.928 18.2682 434.749 20.0871C436.724 21.0271 443.706 14.6651 445.152 12.7379C449.816 6.52065 450.454 16.9871 454.889 13.2926C457.596 11.0374 463.134 9.31985 465.374 13.9859C468.393 20.2728 471.211 8.01663 474.362 10.7966C476.233 12.4464 475.118 17.7298 477.358 17.7298C479.633 17.7298 481.602 15.2339 484.099 15.2339C491.258 15.2339 495.225 7.28221 501.326 2.19944C506.897 -2.44157 506.085 7.4206 507.235 14.1245C509.715 28.5879 521.324 8.46196 527.125 7.746C530.258 7.3593 533.472 3.03143 536.445 3.03143C538.086 3.03143 536.837 10.5724 537.61 12.1833C541.687 20.6742 541.986 14.3232 547.015 18.9778C550.03 21.7694 557.205 17.0987 559.414 20.7804C562.603 26.0926 563.291 29.8683 569.484 27.575C571.965 26.6563 571.497 21.2831 573.978 20.3644C577.473 19.0702 577.86 18.7661 580.719 15.7885C585.224 11.0973 586.056 16.7242 590.456 15.0952C594.061 13.7602 596.655 3.23826 600.526 9.6873C607.281 20.9421 622.655 0.236029 626.408 11.4899C629.205 19.881 630.032 19.6897 636.144 20.2258C643.603 20.8798 648.847 19.5863 654.786 11.4899C662.155 1.44372 659.98 10.1201 666.104 15.7885C672.204 21.4349 671.511 7.64571 677.256 10.3806C681.162 12.2401 684.819 13.4949 688.574 17.1752C691.125 19.6758 695.478 22.7217 698.394 22.7217C704.04 22.7217 706.33 22.4427 711.044 18.2845C713.456 16.1565 718.691 8.27023 720.031 12.7379L720.122 47M360.607 47H720.122M720.122 47L720.031 15.2339C724.839 9.99644 733.439 -0.9231 735.094 11.4899C736.272 20.3186 743.794 19.084 747.328 15.2339C752.935 9.12501 755.68 0.334943 761.226 11.6286C766.248 21.8568 767.962 25.1983 772.461 13.2926C777.541 -0.149985 773.367 18.696 776.289 20.0871C781.709 22.6673 782.92 23.4553 787.108 17.1752C792.66 8.84867 790.444 18.2682 794.265 20.0871C796.239 21.0271 803.222 14.6651 804.667 12.7379C809.332 6.52065 809.97 16.9871 814.404 13.2926C817.111 11.0374 822.65 9.31985 824.89 13.9859C827.909 20.2728 830.727 8.01663 833.878 10.7966C835.748 12.4464 834.633 17.7298 836.874 17.7298C839.149 17.7298 841.118 15.2339 843.615 15.2339C850.774 15.2339 854.741 7.28221 860.842 2.19944C866.412 -2.44157 865.601 7.4206 866.75 14.1245C869.231 28.5879 880.839 8.46196 886.64 7.746C889.774 7.3593 892.987 3.03143 895.961 3.03143C897.602 3.03143 896.353 10.5724 897.126 12.1833C901.203 20.6742 901.502 14.3232 906.53 18.9778C909.546 21.7694 916.721 17.0987 918.93 20.7804C922.118 26.0926 922.806 29.8683 929 27.575C931.481 26.6563 931.013 21.2831 933.494 20.3644C936.989 19.0702 937.376 18.7661 940.235 15.7885C944.74 11.0973 945.572 16.7242 949.972 15.0952C953.577 13.7602 956.171 3.23826 960.042 9.6873C966.796 20.9421 982.171 0.236029 985.923 11.4899C988.721 19.881 989.547 19.6897 995.66 20.2258C1003.12 20.8798 1008.36 19.5863 1014.3 11.4899C1021.67 1.44372 1019.5 10.1201 1025.62 15.7885C1031.72 21.4349 1031.03 7.64571 1036.77 10.3806C1040.68 12.2401 1044.33 13.4949 1048.09 17.1752C1050.64 19.6758 1054.99 22.7217 1057.91 22.7217C1063.56 22.7217 1065.85 22.4427 1070.56 18.2845C1072.97 16.1565 1078.21 8.27023 1079.55 12.7379L1079.64 47H720.122ZM2276.61 47H1917.09L1917 15.2339C1921.81 9.99644 1930.41 -0.9231 1932.06 11.4899C1933.24 20.3186 1940.76 19.084 1944.3 15.2339C1949.9 9.12501 1952.65 0.334943 1958.19 11.6286C1963.22 21.8568 1964.93 25.1983 1969.43 13.2926C1974.51 -0.149985 1970.34 18.696 1973.26 20.0871C1978.68 22.6673 1979.89 23.4553 1984.08 17.1752C1989.63 8.84867 1987.41 18.2682 1991.23 20.0871C1993.21 21.0271 2000.19 14.6651 2001.64 12.7379C2006.3 6.52065 2006.94 16.9871 2011.37 13.2926C2014.08 11.0374 2019.62 9.31985 2021.86 13.9859C2024.88 20.2728 2027.7 8.01663 2030.85 10.7966C2032.72 12.4464 2031.6 17.7298 2033.84 17.7298C2036.12 17.7298 2038.09 15.2339 2040.58 15.2339C2047.74 15.2339 2051.71 7.28221 2057.81 2.19944C2063.38 -2.44157 2062.57 7.4206 2063.72 14.1245C2066.2 28.5879 2077.81 8.46196 2083.61 7.746C2086.74 7.3593 2089.96 3.03143 2092.93 3.03143C2094.57 3.03143 2093.32 10.5724 2094.09 12.1833C2098.17 20.6742 2098.47 14.3232 2103.5 18.9778C2106.51 21.7694 2113.69 17.0987 2115.9 20.7804C2119.09 26.0926 2119.77 29.8683 2125.97 27.575C2128.45 26.6563 2127.98 21.2831 2130.46 20.3644C2133.96 19.0702 2134.34 18.7661 2137.2 15.7885C2141.71 11.0973 2142.54 16.7242 2146.94 15.0952C2150.55 13.7602 2153.14 3.23826 2157.01 9.6873C2163.76 20.9421 2179.14 0.236029 2182.89 11.4899C2185.69 19.881 2186.52 19.6897 2192.63 20.2258C2200.09 20.8798 2205.33 19.5863 2211.27 11.4899C2218.64 1.44372 2216.46 10.1201 2222.59 15.7885C2228.69 21.4349 2228 7.64571 2233.74 10.3806C2237.65 12.2401 2241.3 13.4949 2245.06 17.1752C2247.61 19.6758 2251.96 22.7217 2254.88 22.7217C2260.52 22.7217 2262.81 22.4427 2267.53 18.2845C2269.94 16.1565 2275.17 8.27023 2276.52 12.7379L2276.61 47ZM2276.61 47L2276.52 15.2339C2281.32 9.99644 2289.92 -0.9231 2291.58 11.4899C2292.76 20.3186 2300.28 19.084 2303.81 15.2339C2309.42 9.12501 2312.16 0.334943 2317.71 11.6286C2322.73 21.8568 2324.45 25.1983 2328.95 13.2926C2334.02 -0.149985 2329.85 18.696 2332.77 20.0871C2338.19 22.6673 2339.4 23.4553 2343.59 17.1752C2349.14 8.84867 2346.93 18.2682 2350.75 20.0871C2352.72 21.0271 2359.71 14.6651 2361.15 12.7379C2365.82 6.52065 2366.45 16.9871 2370.89 13.2926C2373.6 11.0374 2379.13 9.31985 2381.37 13.9859C2384.39 20.2728 2387.21 8.01663 2390.36 10.7966C2392.23 12.4464 2391.12 17.7298 2393.36 17.7298C2395.63 17.7298 2397.6 15.2339 2400.1 15.2339C2407.26 15.2339 2411.23 7.28221 2417.33 2.19944C2422.9 -2.44157 2422.09 7.4206 2423.23 14.1245C2425.71 28.5879 2437.32 8.46196 2443.12 7.746C2446.26 7.3593 2449.47 3.03143 2452.45 3.03143C2454.09 3.03143 2452.84 10.5724 2453.61 12.1833C2457.69 20.6742 2457.99 14.3232 2463.01 18.9778C2466.03 21.7694 2473.2 17.0987 2475.41 20.7804C2478.6 26.0926 2479.29 29.8683 2485.48 27.575C2487.97 26.6563 2487.5 21.2831 2489.98 20.3644C2493.47 19.0702 2493.86 18.7661 2496.72 15.7885C2501.22 11.0973 2502.06 16.7242 2506.46 15.0952C2510.06 13.7602 2512.66 3.23826 2516.53 9.6873C2523.28 20.9421 2538.66 0.236029 2542.41 11.4899C2545.21 19.881 2546.03 19.6897 2552.14 20.2258C2559.6 20.8798 2564.85 19.5863 2570.79 11.4899C2578.16 1.44372 2575.98 10.1201 2582.1 15.7885C2588.2 21.4349 2587.51 7.64571 2593.26 10.3806C2597.16 12.2401 2600.82 13.4949 2604.57 17.1752C2607.13 19.6758 2611.48 22.7217 2614.39 22.7217C2620.04 22.7217 2622.33 22.4427 2627.04 18.2845C2629.46 16.1565 2634.69 8.27023 2636.03 12.7379L2636.12 47M2276.61 47H2636.12M2636.12 47L2636.03 15.2339C2640.84 9.99644 2649.44 -0.9231 2651.09 11.4899C2652.27 20.3186 2659.79 19.084 2663.33 15.2339C2668.94 9.12501 2671.68 0.334943 2677.23 11.6286C2682.25 21.8568 2683.96 25.1983 2688.46 13.2926C2693.54 -0.149985 2689.37 18.696 2692.29 20.0871C2697.71 22.6673 2698.92 23.4553 2703.11 17.1752C2708.66 8.84867 2706.44 18.2682 2710.26 20.0871C2712.24 21.0271 2719.22 14.6651 2720.67 12.7379C2725.33 6.52065 2725.97 16.9871 2730.4 13.2926C2733.11 11.0374 2738.65 9.31985 2740.89 13.9859C2743.91 20.2728 2746.73 8.01663 2749.88 10.7966C2751.75 12.4464 2750.63 17.7298 2752.87 17.7298C2755.15 17.7298 2757.12 15.2339 2759.61 15.2339C2766.77 15.2339 2770.74 7.28221 2776.84 2.19944C2782.41 -2.44157 2781.6 7.4206 2782.75 14.1245C2785.23 28.5879 2796.84 8.46196 2802.64 7.746C2805.77 7.3593 2808.99 3.03143 2811.96 3.03143C2813.6 3.03143 2812.35 10.5724 2813.13 12.1833C2817.2 20.6742 2817.5 14.3232 2822.53 18.9778C2825.55 21.7694 2832.72 17.0987 2834.93 20.7804C2838.12 26.0926 2838.81 29.8683 2845 27.575C2847.48 26.6563 2847.01 21.2831 2849.49 20.3644C2852.99 19.0702 2853.38 18.7661 2856.23 15.7885C2860.74 11.0973 2861.57 16.7242 2865.97 15.0952C2869.58 13.7602 2872.17 3.23826 2876.04 9.6873C2882.8 20.9421 2898.17 0.236029 2901.92 11.4899C2904.72 19.881 2905.55 19.6897 2911.66 20.2258C2919.12 20.8798 2924.36 19.5863 2930.3 11.4899C2937.67 1.44372 2935.5 10.1201 2941.62 15.7885C2947.72 21.4349 2947.03 7.64571 2952.77 10.3806C2956.68 12.2401 2960.33 13.4949 2964.09 17.1752C2966.64 19.6758 2970.99 22.7217 2973.91 22.7217C2979.56 22.7217 2981.85 22.4427 2986.56 18.2845C2988.97 16.1565 2994.21 8.27023 2995.55 12.7379L2995.64 47H2636.12ZM4192.61 47H3833.09L3833 15.2339C3837.81 9.99644 3846.41 -0.9231 3848.06 11.4899C3849.24 20.3186 3856.76 19.084 3860.3 15.2339C3865.9 9.12501 3868.65 0.334943 3874.19 11.6286C3879.22 21.8568 3880.93 25.1983 3885.43 13.2926C3890.51 -0.149985 3886.34 18.696 3889.26 20.0871C3894.68 22.6673 3895.89 23.4553 3900.08 17.1752C3905.63 8.84867 3903.41 18.2682 3907.23 20.0871C3909.21 21.0271 3916.19 14.6651 3917.64 12.7379C3922.3 6.52065 3922.94 16.9871 3927.37 13.2926C3930.08 11.0374 3935.62 9.31985 3937.86 13.9859C3940.88 20.2728 3943.7 8.01663 3946.85 10.7966C3948.72 12.4464 3947.6 17.7298 3949.84 17.7298C3952.12 17.7298 3954.09 15.2339 3956.58 15.2339C3963.74 15.2339 3967.71 7.28221 3973.81 2.19944C3979.38 -2.44157 3978.57 7.4206 3979.72 14.1245C3982.2 28.5879 3993.81 8.46196 3999.61 7.746C4002.74 7.3593 4005.96 3.03143 4008.93 3.03143C4010.57 3.03143 4009.32 10.5724 4010.09 12.1833C4014.17 20.6742 4014.47 14.3232 4019.5 18.9778C4022.51 21.7694 4029.69 17.0987 4031.9 20.7804C4035.09 26.0926 4035.77 29.8683 4041.97 27.575C4044.45 26.6563 4043.98 21.2831 4046.46 20.3644C4049.96 19.0702 4050.34 18.7661 4053.2 15.7885C4057.71 11.0973 4058.54 16.7242 4062.94 15.0952C4066.55 13.7602 4069.14 3.23826 4073.01 9.6873C4079.76 20.9421 4095.14 0.236029 4098.89 11.4899C4101.69 19.881 4102.52 19.6897 4108.63 20.2258C4116.09 20.8798 4121.33 19.5863 4127.27 11.4899C4134.64 1.44372 4132.46 10.1201 4138.59 15.7885C4144.69 21.4349 4144 7.64571 4149.74 10.3806C4153.65 12.2401 4157.3 13.4949 4161.06 17.1752C4163.61 19.6758 4167.96 22.7217 4170.88 22.7217C4176.52 22.7217 4178.81 22.4427 4183.53 18.2845C4185.94 16.1565 4191.17 8.27023 4192.52 12.7379L4192.61 47ZM4192.61 47L4192.52 15.2339C4197.32 9.99644 4205.92 -0.9231 4207.58 11.4899C4208.76 20.3186 4216.28 19.084 4219.81 15.2339C4225.42 9.12501 4228.16 0.334943 4233.71 11.6286C4238.73 21.8568 4240.45 25.1983 4244.95 13.2926C4250.03 -0.149985 4245.85 18.696 4248.77 20.0871C4254.19 22.6673 4255.4 23.4553 4259.59 17.1752C4265.14 8.84867 4262.93 18.2682 4266.75 20.0871C4268.72 21.0271 4275.71 14.6651 4277.15 12.7379C4281.82 6.52065 4282.45 16.9871 4286.89 13.2926C4289.6 11.0374 4295.13 9.31985 4297.37 13.9859C4300.39 20.2728 4303.21 8.01663 4306.36 10.7966C4308.23 12.4464 4307.12 17.7298 4309.36 17.7298C4311.63 17.7298 4313.6 15.2339 4316.1 15.2339C4323.26 15.2339 4327.23 7.28221 4333.33 2.19944C4338.9 -2.44157 4338.09 7.4206 4339.23 14.1245C4341.71 28.5879 4353.32 8.46196 4359.12 7.746C4362.26 7.3593 4365.47 3.03143 4368.45 3.03143C4370.09 3.03143 4368.84 10.5724 4369.61 12.1833C4373.69 20.6742 4373.99 14.3232 4379.01 18.9778C4382.03 21.7694 4389.2 17.0987 4391.41 20.7804C4394.6 26.0926 4395.29 29.8683 4401.48 27.575C4403.97 26.6563 4403.5 21.2831 4405.98 20.3644C4409.47 19.0702 4409.86 18.7661 4412.72 15.7885C4417.22 11.0973 4418.06 16.7242 4422.46 15.0952C4426.06 13.7602 4428.66 3.23826 4432.53 9.6873C4439.28 20.9421 4454.66 0.236029 4458.41 11.4899C4461.21 19.881 4462.03 19.6897 4468.14 20.2258C4475.6 20.8798 4480.85 19.5863 4486.79 11.4899C4494.16 1.44372 4491.98 10.1201 4498.1 15.7885C4504.2 21.4349 4503.51 7.64571 4509.26 10.3806C4513.16 12.2401 4516.82 13.4949 4520.57 17.1752C4523.13 19.6758 4527.48 22.7217 4530.39 22.7217C4536.04 22.7217 4538.33 22.4427 4543.04 18.2845C4545.46 16.1565 4550.69 8.27023 4552.03 12.7379L4552.12 47M4192.61 47H4552.12M4552.12 47L4552.03 15.2339C4556.84 9.99644 4565.44 -0.9231 4567.09 11.4899C4568.27 20.3186 4575.79 19.084 4579.33 15.2339C4584.94 9.12501 4587.68 0.334943 4593.23 11.6286C4598.25 21.8568 4599.96 25.1983 4604.46 13.2926C4609.54 -0.149985 4605.37 18.696 4608.29 20.0871C4613.71 22.6673 4614.92 23.4553 4619.11 17.1752C4624.66 8.84867 4622.44 18.2682 4626.26 20.0871C4628.24 21.0271 4635.22 14.6651 4636.67 12.7379C4641.33 6.52065 4641.97 16.9871 4646.4 13.2926C4649.11 11.0374 4654.65 9.31985 4656.89 13.9859C4659.91 20.2728 4662.73 8.01663 4665.88 10.7966C4667.75 12.4464 4666.63 17.7298 4668.87 17.7298C4671.15 17.7298 4673.12 15.2339 4675.62 15.2339C4682.77 15.2339 4686.74 7.28221 4692.84 2.19944C4698.41 -2.44157 4697.6 7.4206 4698.75 14.1245C4701.23 28.5879 4712.84 8.46196 4718.64 7.746C4721.77 7.3593 4724.99 3.03143 4727.96 3.03143C4729.6 3.03143 4728.35 10.5724 4729.13 12.1833C4733.2 20.6742 4733.5 14.3232 4738.53 18.9778C4741.55 21.7694 4748.72 17.0987 4750.93 20.7804C4754.12 26.0926 4754.81 29.8683 4761 27.575C4763.48 26.6563 4763.01 21.2831 4765.49 20.3644C4768.99 19.0702 4769.38 18.7661 4772.23 15.7885C4776.74 11.0973 4777.57 16.7242 4781.97 15.0952C4785.58 13.7602 4788.17 3.23826 4792.04 9.6873C4798.8 20.9421 4814.17 0.236029 4817.92 11.4899C4820.72 19.881 4821.55 19.6897 4827.66 20.2258C4835.12 20.8798 4840.36 19.5863 4846.3 11.4899C4853.67 1.44372 4851.5 10.1201 4857.62 15.7885C4863.72 21.4349 4863.03 7.64571 4868.77 10.3806C4872.68 12.2401 4876.33 13.4949 4880.09 17.1752C4882.64 19.6758 4886.99 22.7217 4889.91 22.7217C4895.56 22.7217 4897.85 22.4427 4902.56 18.2845C4904.97 16.1565 4910.21 8.27023 4911.55 12.7379L4911.64 47H4552.12ZM1068.56 15.2339C1073.37 9.99644 1081.97 -0.9231 1083.62 11.4899C1084.8 20.3186 1092.32 19.084 1095.85 15.2339C1101.46 9.12501 1104.2 0.334943 1109.75 11.6286C1114.77 21.8568 1116.48 25.1983 1120.98 13.2926C1126.06 -0.149985 1121.88 18.696 1124.81 20.0871C1130.22 22.6673 1131.43 23.4553 1135.62 17.1752C1141.17 8.84867 1138.96 18.2682 1142.78 20.0871C1144.75 21.0271 1151.73 14.6651 1153.18 12.7379C1157.84 6.52065 1158.48 16.9871 1162.91 13.2926C1165.62 11.0374 1171.15 9.31985 1173.39 13.9859C1176.41 20.2728 1179.23 8.01663 1182.38 10.7966C1184.25 12.4464 1183.13 17.7298 1185.38 17.7298C1187.65 17.7298 1189.62 15.2339 1192.11 15.2339C1199.27 15.2339 1203.24 7.28221 1209.34 2.19944C1214.91 -2.44157 1214.09 7.4206 1215.24 14.1245C1217.72 28.5879 1229.33 8.46196 1235.13 7.746C1238.26 7.3593 1241.47 3.03143 1244.45 3.03143C1246.09 3.03143 1244.84 10.5724 1245.61 12.1833C1249.69 20.6742 1249.99 14.3232 1255.01 18.9778C1258.03 21.7694 1265.2 17.0987 1267.41 20.7804C1270.6 26.0926 1271.29 29.8683 1277.48 27.575C1279.96 26.6563 1279.49 21.2831 1281.97 20.3644C1285.46 19.0702 1285.85 18.7661 1288.71 15.7885C1293.21 11.0973 1294.05 16.7242 1298.44 15.0952C1302.05 13.7602 1304.64 3.23826 1308.51 9.6873C1315.26 20.9421 1330.64 0.236029 1334.39 11.4899C1337.18 19.881 1338.01 19.6897 1344.12 20.2258C1351.58 20.8798 1356.82 19.5863 1362.76 11.4899C1370.13 1.44372 1367.95 10.1201 1374.07 15.7885C1380.17 21.4349 1379.48 7.64571 1385.22 10.3806C1389.13 12.2401 1392.78 13.4949 1396.54 17.1752C1399.09 19.6758 1403.44 22.7217 1406.35 22.7217C1412 22.7217 1414.29 22.4427 1419 18.2845C1421.41 16.1565 1426.65 8.27023 1427.99 12.7379L1428.08 47H1068.65L1068.56 15.2339ZM1428.08 28.3547C1432.89 25.2805 1441.49 18.8712 1443.14 26.1571C1444.32 31.3392 1451.84 30.6145 1455.37 28.3547C1460.98 24.769 1463.73 19.6096 1469.27 26.2385C1474.29 32.242 1476.01 34.2033 1480.51 27.2152C1485.59 19.325 1481.41 30.3868 1484.34 31.2033C1489.76 32.7178 1490.97 33.1803 1495.15 29.4941C1500.71 24.6068 1498.49 30.1357 1502.31 31.2033C1504.29 31.755 1511.27 28.0208 1512.71 26.8896C1517.38 23.2404 1518.02 29.3837 1522.45 27.2152C1525.16 25.8915 1530.7 24.8834 1532.94 27.6222C1535.95 31.3123 1538.77 24.1185 1541.92 25.7502C1543.79 26.7185 1542.68 29.8197 1544.92 29.8197C1547.2 29.8197 1549.16 28.3547 1551.66 28.3547C1558.82 28.3547 1562.79 23.6874 1568.89 20.704C1574.46 17.9799 1573.65 23.7686 1574.8 27.7035C1577.28 36.1929 1588.89 24.3798 1594.69 23.9596C1597.82 23.7326 1601.03 21.1924 1604.01 21.1924C1605.65 21.1924 1604.4 25.6186 1605.17 26.5641C1609.25 31.5479 1609.55 27.8201 1614.58 30.5522C1617.59 32.1908 1624.77 29.4492 1626.98 31.6102C1630.16 34.7283 1630.85 36.9444 1637.05 35.5983C1639.53 35.0591 1639.06 31.9053 1641.54 31.3661C1645.04 30.6064 1645.42 30.4279 1648.28 28.6802C1652.79 25.9267 1653.62 29.2294 1658.02 28.2733C1661.62 27.4897 1664.22 21.3138 1668.09 25.0991C1674.84 31.7052 1690.22 19.5516 1693.97 26.1571C1696.77 31.0823 1697.59 30.97 1703.71 31.2847C1711.16 31.6686 1716.41 30.9093 1722.35 26.1571C1729.72 20.2604 1727.54 25.3531 1733.67 28.6802C1739.77 31.9944 1739.07 23.9007 1744.82 25.506C1748.72 26.5975 1752.38 27.334 1756.14 29.4941C1758.69 30.9619 1763.04 32.7497 1765.96 32.7497C1771.6 32.7497 1773.89 32.5859 1778.61 30.1452C1781.02 28.8962 1786.25 24.2673 1787.59 26.8896L1787.68 47H1428.17L1428.08 28.3547ZM1149.45 15.2339C1154.26 9.99644 1162.86 -0.9231 1164.52 11.4899C1165.69 20.3186 1173.22 19.084 1176.75 15.2339C1182.36 9.12501 1185.1 0.334943 1190.65 11.6286C1195.67 21.8568 1197.38 25.1983 1201.88 13.2926C1206.96 -0.149985 1202.79 18.696 1205.71 20.0871C1211.13 22.6673 1212.34 23.4553 1216.53 17.1752C1222.08 8.84867 1219.87 18.2682 1223.69 20.0871C1225.66 21.0271 1232.64 14.6651 1234.09 12.7379C1238.75 6.52065 1239.39 16.9871 1243.83 13.2926C1246.53 11.0374 1252.07 9.31985 1254.31 13.9859C1257.33 20.2728 1260.15 8.01663 1263.3 10.7966C1265.17 12.4464 1264.05 17.7298 1266.3 17.7298C1268.57 17.7298 1270.54 15.2339 1273.04 15.2339C1280.2 15.2339 1284.16 7.28221 1290.26 2.19944C1295.83 -2.44157 1295.02 7.4206 1296.17 14.1245C1298.65 28.5879 1310.26 8.46196 1316.06 7.746C1319.2 7.3593 1322.41 3.03143 1325.38 3.03143C1327.02 3.03143 1325.77 10.5724 1326.55 12.1833C1330.62 20.6742 1330.92 14.3232 1335.95 18.9778C1338.97 21.7694 1346.14 17.0987 1348.35 20.7804C1351.54 26.0926 1352.23 29.8683 1358.42 27.575C1360.9 26.6563 1360.43 21.2831 1362.92 20.3644C1366.41 19.0702 1366.8 18.7661 1369.66 15.7885C1374.16 11.0973 1374.99 16.7242 1379.39 15.0952C1383 13.7602 1385.59 3.23826 1389.46 9.6873C1396.22 20.9421 1411.59 0.236029 1415.34 11.4899C1418.14 19.881 1418.97 19.6897 1425.08 20.2258C1432.54 20.8798 1437.78 19.5863 1443.72 11.4899C1451.09 1.44372 1448.92 10.1201 1455.04 15.7885C1461.14 21.4349 1460.45 7.64571 1466.19 10.3806C1470.1 12.2401 1473.76 13.4949 1477.51 17.1752C1480.06 19.6758 1484.42 22.7217 1487.33 22.7217C1492.98 22.7217 1495.27 22.4427 1499.98 18.2845C1502.39 16.1565 1507.63 8.27023 1508.97 12.7379L1509.06 47H1149.54L1149.45 15.2339ZM1509 15.2339C1514.55 9.99644 1524.47 -0.9231 1526.38 11.4899C1527.74 20.3186 1536.42 19.084 1540.5 15.2339C1546.97 9.12501 1550.14 0.334943 1556.54 11.6286C1562.34 21.8568 1564.31 25.1983 1569.51 13.2926C1575.37 -0.149985 1570.55 18.696 1573.92 20.0871C1580.18 22.6673 1581.58 23.4553 1586.41 17.1752C1592.82 8.84867 1590.26 18.2682 1594.67 20.0871C1596.95 21.0271 1605 14.6651 1606.67 12.7379C1612.06 6.52065 1612.79 16.9871 1617.91 13.2926C1621.03 11.0374 1627.43 9.31985 1630.01 13.9859C1633.49 20.2728 1636.75 8.01663 1640.38 10.7966C1642.54 12.4464 1641.26 17.7298 1643.84 17.7298C1646.47 17.7298 1648.74 15.2339 1651.62 15.2339C1659.88 15.2339 1664.46 7.28221 1671.5 2.19944C1677.93 -2.44157 1676.99 7.4206 1678.32 14.1245C1681.18 28.5879 1694.58 8.46196 1701.27 7.746C1704.89 7.3593 1708.6 3.03143 1712.03 3.03143C1713.92 3.03143 1712.48 10.5724 1713.37 12.1833C1718.08 20.6742 1718.42 14.3232 1724.23 18.9778C1727.71 21.7694 1735.99 17.0987 1738.54 20.7804C1742.22 26.0926 1743.01 29.8683 1750.16 27.575C1753.02 26.6563 1752.48 21.2831 1755.34 20.3644C1759.38 19.0702 1759.82 18.7661 1763.12 15.7885C1768.32 11.0973 1769.28 16.7242 1774.36 15.0952C1778.52 13.7602 1781.51 3.23826 1785.98 9.6873C1793.78 20.9421 1811.52 0.236029 1815.85 11.4899C1819.08 19.881 1820.03 19.6897 1827.09 20.2258C1835.69 20.8798 1841.75 19.5863 1848.6 11.4899C1857.1 1.44372 1854.59 10.1201 1861.66 15.7885C1868.7 21.4349 1867.9 7.64571 1874.53 10.3806C1879.04 12.2401 1883.26 13.4949 1887.59 17.1752C1890.54 19.6758 1895.56 22.7217 1898.92 22.7217C1905.44 22.7217 1908.08 22.4427 1913.52 18.2845C1916.31 16.1565 1922.35 8.27023 1923.89 12.7379L1924 47H1509.1L1509 15.2339ZM2984.56 15.2339C2989.37 9.99644 2997.97 -0.9231 2999.62 11.4899C3000.8 20.3186 3008.32 19.084 3011.85 15.2339C3017.46 9.12501 3020.2 0.334943 3025.75 11.6286C3030.77 21.8568 3032.48 25.1983 3036.98 13.2926C3042.06 -0.149985 3037.88 18.696 3040.81 20.0871C3046.22 22.6673 3047.43 23.4553 3051.62 17.1752C3057.17 8.84867 3054.96 18.2682 3058.78 20.0871C3060.75 21.0271 3067.73 14.6651 3069.18 12.7379C3073.84 6.52065 3074.48 16.9871 3078.91 13.2926C3081.62 11.0374 3087.15 9.31985 3089.39 13.9859C3092.41 20.2728 3095.23 8.01663 3098.38 10.7966C3100.25 12.4464 3099.13 17.7298 3101.38 17.7298C3103.65 17.7298 3105.62 15.2339 3108.11 15.2339C3115.27 15.2339 3119.24 7.28221 3125.34 2.19944C3130.91 -2.44157 3130.09 7.4206 3131.24 14.1245C3133.72 28.5879 3145.33 8.46196 3151.13 7.746C3154.26 7.3593 3157.47 3.03143 3160.45 3.03143C3162.09 3.03143 3160.84 10.5724 3161.61 12.1833C3165.69 20.6742 3165.99 14.3232 3171.01 18.9778C3174.03 21.7694 3181.2 17.0987 3183.41 20.7804C3186.6 26.0926 3187.29 29.8683 3193.48 27.575C3195.96 26.6563 3195.49 21.2831 3197.97 20.3644C3201.46 19.0702 3201.85 18.7661 3204.71 15.7885C3209.21 11.0973 3210.05 16.7242 3214.44 15.0952C3218.05 13.7602 3220.64 3.23826 3224.51 9.6873C3231.26 20.9421 3246.64 0.236029 3250.39 11.4899C3253.18 19.881 3254.01 19.6897 3260.12 20.2258C3267.58 20.8798 3272.82 19.5863 3278.76 11.4899C3286.13 1.44372 3283.95 10.1201 3290.07 15.7885C3296.17 21.4349 3295.48 7.64571 3301.22 10.3806C3305.13 12.2401 3308.78 13.4949 3312.54 17.1752C3315.09 19.6758 3319.44 22.7217 3322.35 22.7217C3328 22.7217 3330.29 22.4427 3335 18.2845C3337.41 16.1565 3342.65 8.27023 3343.99 12.7379L3344.08 47H2984.65L2984.56 15.2339ZM3344.08 28.3547C3348.89 25.2805 3357.49 18.8712 3359.14 26.1571C3360.32 31.3392 3367.84 30.6145 3371.37 28.3547C3376.98 24.769 3379.73 19.6096 3385.27 26.2385C3390.29 32.242 3392.01 34.2033 3396.51 27.2152C3401.59 19.325 3397.41 30.3868 3400.34 31.2033C3405.76 32.7178 3406.97 33.1803 3411.15 29.4941C3416.71 24.6068 3414.49 30.1357 3418.31 31.2033C3420.29 31.755 3427.27 28.0208 3428.71 26.8896C3433.38 23.2404 3434.02 29.3837 3438.45 27.2152C3441.16 25.8915 3446.7 24.8834 3448.94 27.6222C3451.96 31.3123 3454.77 24.1185 3457.92 25.7502C3459.79 26.7185 3458.68 29.8197 3460.92 29.8197C3463.2 29.8197 3465.16 28.3547 3467.66 28.3547C3474.82 28.3547 3478.79 23.6874 3484.89 20.704C3490.46 17.9799 3489.65 23.7686 3490.8 27.7035C3493.28 36.1929 3504.89 24.3798 3510.69 23.9596C3513.82 23.7326 3517.03 21.1924 3520.01 21.1924C3521.65 21.1924 3520.4 25.6186 3521.17 26.5641C3525.25 31.5479 3525.55 27.8201 3530.58 30.5522C3533.59 32.1908 3540.77 29.4492 3542.98 31.6102C3546.16 34.7283 3546.85 36.9444 3553.05 35.5983C3555.53 35.0591 3555.06 31.9053 3557.54 31.3661C3561.04 30.6064 3561.42 30.4279 3564.28 28.6802C3568.79 25.9267 3569.62 29.2294 3574.02 28.2733C3577.62 27.4897 3580.22 21.3138 3584.09 25.0991C3590.84 31.7052 3606.22 19.5516 3609.97 26.1571C3612.77 31.0823 3613.59 30.97 3619.71 31.2847C3627.16 31.6686 3632.41 30.9093 3638.35 26.1571C3645.72 20.2604 3643.54 25.3531 3649.67 28.6802C3655.77 31.9944 3655.07 23.9007 3660.82 25.506C3664.72 26.5975 3668.38 27.334 3672.14 29.4941C3674.69 30.9619 3679.04 32.7497 3681.96 32.7497C3687.6 32.7497 3689.89 32.5859 3694.61 30.1452C3697.02 28.8962 3702.25 24.2673 3703.59 26.8896L3703.68 47H3344.17L3344.08 28.3547ZM3065.45 15.2339C3070.26 9.99644 3078.86 -0.9231 3080.52 11.4899C3081.69 20.3186 3089.22 19.084 3092.75 15.2339C3098.36 9.12501 3101.1 0.334943 3106.65 11.6286C3111.67 21.8568 3113.38 25.1983 3117.88 13.2926C3122.96 -0.149985 3118.79 18.696 3121.71 20.0871C3127.13 22.6673 3128.34 23.4553 3132.53 17.1752C3138.08 8.84867 3135.87 18.2682 3139.69 20.0871C3141.66 21.0271 3148.64 14.6651 3150.09 12.7379C3154.75 6.52065 3155.39 16.9871 3159.83 13.2926C3162.53 11.0374 3168.07 9.31985 3170.31 13.9859C3173.33 20.2728 3176.15 8.01663 3179.3 10.7966C3181.17 12.4464 3180.05 17.7298 3182.3 17.7298C3184.57 17.7298 3186.54 15.2339 3189.04 15.2339C3196.2 15.2339 3200.16 7.28221 3206.26 2.19944C3211.83 -2.44157 3211.02 7.4206 3212.17 14.1245C3214.65 28.5879 3226.26 8.46196 3232.06 7.746C3235.2 7.3593 3238.41 3.03143 3241.38 3.03143C3243.02 3.03143 3241.77 10.5724 3242.55 12.1833C3246.62 20.6742 3246.92 14.3232 3251.95 18.9778C3254.97 21.7694 3262.14 17.0987 3264.35 20.7804C3267.54 26.0926 3268.23 29.8683 3274.42 27.575C3276.9 26.6563 3276.43 21.2831 3278.92 20.3644C3282.41 19.0702 3282.8 18.7661 3285.66 15.7885C3290.16 11.0973 3290.99 16.7242 3295.39 15.0952C3299 13.7602 3301.59 3.23826 3305.46 9.6873C3312.22 20.9421 3327.59 0.236029 3331.34 11.4899C3334.14 19.881 3334.97 19.6897 3341.08 20.2258C3348.54 20.8798 3353.78 19.5863 3359.72 11.4899C3367.09 1.44372 3364.92 10.1201 3371.04 15.7885C3377.14 21.4349 3376.45 7.64571 3382.19 10.3806C3386.1 12.2401 3389.76 13.4949 3393.51 17.1752C3396.06 19.6758 3400.42 22.7217 3403.33 22.7217C3408.98 22.7217 3411.27 22.4427 3415.98 18.2845C3418.39 16.1565 3423.63 8.27023 3424.97 12.7379L3425.06 47H3065.54L3065.45 15.2339ZM3425 15.2339C3430.55 9.99644 3440.47 -0.9231 3442.38 11.4899C3443.74 20.3186 3452.42 19.084 3456.5 15.2339C3462.97 9.12501 3466.14 0.334943 3472.54 11.6286C3478.34 21.8568 3480.31 25.1983 3485.51 13.2926C3491.37 -0.149985 3486.55 18.696 3489.92 20.0871C3496.18 22.6673 3497.58 23.4553 3502.41 17.1752C3508.82 8.84867 3506.26 18.2682 3510.67 20.0871C3512.95 21.0271 3521 14.6651 3522.67 12.7379C3528.06 6.52065 3528.79 16.9871 3533.91 13.2926C3537.03 11.0374 3543.43 9.31985 3546.01 13.9859C3549.49 20.2728 3552.75 8.01663 3556.38 10.7966C3558.54 12.4464 3557.26 17.7298 3559.84 17.7298C3562.47 17.7298 3564.74 15.2339 3567.62 15.2339C3575.88 15.2339 3580.46 7.28221 3587.5 2.19944C3593.93 -2.44157 3592.99 7.4206 3594.32 14.1245C3597.18 28.5879 3610.58 8.46196 3617.27 7.746C3620.89 7.3593 3624.6 3.03143 3628.03 3.03143C3629.92 3.03143 3628.48 10.5724 3629.37 12.1833C3634.08 20.6742 3634.42 14.3232 3640.23 18.9778C3643.71 21.7694 3651.99 17.0987 3654.54 20.7804C3658.22 26.0926 3659.01 29.8683 3666.16 27.575C3669.02 26.6563 3668.48 21.2831 3671.34 20.3644C3675.38 19.0702 3675.82 18.7661 3679.12 15.7885C3684.32 11.0973 3685.28 16.7242 3690.36 15.0952C3694.52 13.7602 3697.51 3.23826 3701.98 9.6873C3709.78 20.9421 3727.52 0.236029 3731.85 11.4899C3735.08 19.881 3736.03 19.6897 3743.09 20.2258C3751.69 20.8798 3757.75 19.5863 3764.6 11.4899C3773.1 1.44372 3770.59 10.1201 3777.66 15.7885C3784.7 21.4349 3783.9 7.64571 3790.53 10.3806C3795.04 12.2401 3799.26 13.4949 3803.59 17.1752C3806.54 19.6758 3811.56 22.7217 3814.92 22.7217C3821.44 22.7217 3824.08 22.4427 3829.52 18.2845C3832.31 16.1565 3838.35 8.27023 3839.9 12.7379L3840 47H3425.1L3425 15.2339ZM4900.56 15.2339C4905.37 9.99644 4913.97 -0.9231 4915.62 11.4899C4916.8 20.3186 4924.32 19.084 4927.85 15.2339C4933.46 9.12501 4936.2 0.334943 4941.75 11.6286C4946.77 21.8568 4948.48 25.1983 4952.98 13.2926C4958.06 -0.149985 4953.88 18.696 4956.81 20.0871C4962.22 22.6673 4963.43 23.4553 4967.62 17.1752C4973.17 8.84867 4970.96 18.2682 4974.78 20.0871C4976.75 21.0271 4983.73 14.6651 4985.18 12.7379C4989.84 6.52065 4990.48 16.9871 4994.91 13.2926C4997.62 11.0374 5003.15 9.31985 5005.39 13.9859C5008.41 20.2728 5011.23 8.01663 5014.38 10.7966C5016.25 12.4464 5015.13 17.7298 5017.38 17.7298C5019.65 17.7298 5021.62 15.2339 5024.11 15.2339C5031.27 15.2339 5035.24 7.28221 5041.34 2.19944C5046.91 -2.44157 5046.09 7.4206 5047.24 14.1245C5049.72 28.5879 5061.33 8.46196 5067.13 7.746C5070.26 7.3593 5073.47 3.03143 5076.45 3.03143C5078.09 3.03143 5076.84 10.5724 5077.61 12.1833C5081.69 20.6742 5081.99 14.3232 5087.01 18.9778C5090.03 21.7694 5097.2 17.0987 5099.41 20.7804C5102.6 26.0926 5103.29 29.8683 5109.48 27.575C5111.96 26.6563 5111.49 21.2831 5113.97 20.3644C5117.46 19.0702 5117.85 18.7661 5120.71 15.7885C5125.21 11.0973 5126.05 16.7242 5130.44 15.0952C5134.05 13.7602 5136.64 3.23826 5140.51 9.6873C5147.26 20.9421 5162.64 0.236029 5166.39 11.4899C5169.18 19.881 5170.01 19.6897 5176.12 20.2258C5183.58 20.8798 5188.82 19.5863 5194.76 11.4899C5202.13 1.44372 5199.95 10.1201 5206.07 15.7885C5212.17 21.4349 5211.48 7.64571 5217.22 10.3806C5221.13 12.2401 5224.78 13.4949 5228.54 17.1752C5231.09 19.6758 5235.44 22.7217 5238.35 22.7217C5244 22.7217 5246.29 22.4427 5251 18.2845C5253.41 16.1565 5258.65 8.27023 5259.99 12.7379L5260.08 47H4900.65L4900.56 15.2339ZM5260.08 28.3547C5264.89 25.2805 5273.49 18.8712 5275.14 26.1571C5276.32 31.3392 5283.84 30.6145 5287.37 28.3547C5292.98 24.769 5295.73 19.6096 5301.27 26.2385C5306.29 32.242 5308.01 34.2033 5312.51 27.2152C5317.59 19.325 5313.41 30.3868 5316.33 31.2033C5321.75 32.7178 5322.97 33.1803 5327.15 29.4941C5332.71 24.6068 5330.49 30.1357 5334.31 31.2033C5336.29 31.755 5343.27 28.0208 5344.71 26.8896C5349.38 23.2404 5350.02 29.3837 5354.45 27.2152C5357.16 25.8915 5362.7 24.8834 5364.94 27.6222C5367.96 31.3123 5370.77 24.1185 5373.92 25.7502C5375.79 26.7185 5374.68 29.8197 5376.92 29.8197C5379.19 29.8197 5381.16 28.3547 5383.66 28.3547C5390.82 28.3547 5394.79 23.6874 5400.89 20.704C5406.46 17.9799 5405.65 23.7686 5406.8 27.7035C5409.28 36.1929 5420.89 24.3798 5426.69 23.9596C5429.82 23.7326 5433.03 21.1924 5436.01 21.1924C5437.65 21.1924 5436.4 25.6186 5437.17 26.5641C5441.25 31.5479 5441.55 27.8201 5446.58 30.5522C5449.59 32.1908 5456.77 29.4492 5458.98 31.6102C5462.16 34.7283 5462.85 36.9444 5469.05 35.5983C5471.53 35.0591 5471.06 31.9053 5473.54 31.3661C5477.04 30.6064 5477.42 30.4279 5480.28 28.6802C5484.79 25.9267 5485.62 29.2294 5490.02 28.2733C5493.62 27.4897 5496.22 21.3138 5500.09 25.0991C5506.84 31.7052 5522.22 19.5516 5525.97 26.1571C5528.77 31.0823 5529.59 30.97 5535.71 31.2847C5543.16 31.6686 5548.41 30.9093 5554.35 26.1571C5561.72 20.2604 5559.54 25.3531 5565.67 28.6802C5571.77 31.9944 5571.07 23.9007 5576.82 25.506C5580.72 26.5975 5584.38 27.334 5588.14 29.4941C5590.69 30.9619 5595.04 32.7497 5597.96 32.7497C5603.6 32.7497 5605.89 32.5859 5610.61 30.1452C5613.02 28.8962 5618.25 24.2673 5619.59 26.8896L5619.68 47H5260.17L5260.08 28.3547ZM4981.45 15.2339C4986.26 9.99644 4994.86 -0.9231 4996.52 11.4899C4997.69 20.3186 5005.22 19.084 5008.75 15.2339C5014.36 9.12501 5017.1 0.334943 5022.65 11.6286C5027.67 21.8568 5029.38 25.1983 5033.88 13.2926C5038.96 -0.149985 5034.79 18.696 5037.71 20.0871C5043.13 22.6673 5044.34 23.4553 5048.53 17.1752C5054.08 8.84867 5051.87 18.2682 5055.69 20.0871C5057.66 21.0271 5064.64 14.6651 5066.09 12.7379C5070.75 6.52065 5071.39 16.9871 5075.83 13.2926C5078.53 11.0374 5084.07 9.31985 5086.31 13.9859C5089.33 20.2728 5092.15 8.01663 5095.3 10.7966C5097.17 12.4464 5096.06 17.7298 5098.3 17.7298C5100.57 17.7298 5102.54 15.2339 5105.04 15.2339C5112.2 15.2339 5116.16 7.28221 5122.26 2.19944C5127.83 -2.44157 5127.02 7.4206 5128.17 14.1245C5130.65 28.5879 5142.26 8.46196 5148.06 7.746C5151.2 7.3593 5154.41 3.03143 5157.38 3.03143C5159.02 3.03143 5157.77 10.5724 5158.55 12.1833C5162.62 20.6742 5162.92 14.3232 5167.95 18.9778C5170.97 21.7694 5178.14 17.0987 5180.35 20.7804C5183.54 26.0926 5184.23 29.8683 5190.42 27.575C5192.9 26.6563 5192.43 21.2831 5194.92 20.3644C5198.41 19.0702 5198.8 18.7661 5201.66 15.7885C5206.16 11.0973 5206.99 16.7242 5211.39 15.0952C5215 13.7602 5217.59 3.23826 5221.46 9.6873C5228.22 20.9421 5243.59 0.236029 5247.34 11.4899C5250.14 19.881 5250.97 19.6897 5257.08 20.2258C5264.54 20.8798 5269.78 19.5863 5275.72 11.4899C5283.09 1.44372 5280.92 10.1201 5287.04 15.7885C5293.14 21.4349 5292.45 7.64571 5298.19 10.3806C5302.1 12.2401 5305.76 13.4949 5309.51 17.1752C5312.06 19.6758 5316.42 22.7217 5319.33 22.7217C5324.98 22.7217 5327.27 22.4427 5331.98 18.2845C5334.39 16.1565 5339.63 8.27023 5340.97 12.7379L5341.06 47H4981.54L4981.45 15.2339ZM5341 15.2339C5346.55 9.99644 5356.47 -0.9231 5358.38 11.4899C5359.74 20.3186 5368.42 19.084 5372.5 15.2339C5378.97 9.12501 5382.14 0.334943 5388.54 11.6286C5394.34 21.8568 5396.31 25.1983 5401.51 13.2926C5407.37 -0.149985 5402.55 18.696 5405.92 20.0871C5412.18 22.6673 5413.58 23.4553 5418.41 17.1752C5424.82 8.84867 5422.26 18.2682 5426.67 20.0871C5428.95 21.0271 5437 14.6651 5438.67 12.7379C5444.06 6.52065 5444.79 16.9871 5449.91 13.2926C5453.03 11.0374 5459.43 9.31985 5462.01 13.9859C5465.49 20.2728 5468.75 8.01663 5472.38 10.7966C5474.54 12.4464 5473.26 17.7298 5475.84 17.7298C5478.47 17.7298 5480.74 15.2339 5483.62 15.2339C5491.88 15.2339 5496.46 7.28221 5503.5 2.19944C5509.93 -2.44157 5508.99 7.4206 5510.32 14.1245C5513.18 28.5879 5526.58 8.46196 5533.27 7.746C5536.89 7.3593 5540.6 3.03143 5544.03 3.03143C5545.92 3.03143 5544.48 10.5724 5545.37 12.1833C5550.08 20.6742 5550.42 14.3232 5556.23 18.9778C5559.71 21.7694 5567.99 17.0987 5570.54 20.7804C5574.22 26.0926 5575.01 29.8683 5582.16 27.575C5585.02 26.6563 5584.48 21.2831 5587.34 20.3644C5591.38 19.0702 5591.82 18.7661 5595.12 15.7885C5600.32 11.0973 5601.28 16.7242 5606.36 15.0952C5610.52 13.7602 5613.51 3.23826 5617.98 9.6873C5625.78 20.9421 5643.52 0.236029 5647.85 11.4899C5651.08 19.881 5652.03 19.6897 5659.09 20.2258C5667.69 20.8798 5673.75 19.5863 5680.6 11.4899C5689.1 1.44372 5686.59 10.1201 5693.66 15.7885C5700.7 21.4349 5699.9 7.64571 5706.53 10.3806C5711.04 12.2401 5715.26 13.4949 5719.59 17.1752C5722.54 19.6758 5727.56 22.7217 5730.92 22.7217C5737.44 22.7217 5740.08 22.4427 5745.52 18.2845C5748.31 16.1565 5754.35 8.27023 5755.9 12.7379L5756 47H5341.1L5341 15.2339Z" stroke="white" stroke-linecap="round"/>
</svg>
