<svg width="60" height="60" viewBox="0 0 60 60" fill="none" xmlns="http://www.w3.org/2000/svg">
<path d="M46.687 59.9683L13.3713 60C6.04182 60.0067 0.0399845 54.0165 0.0316556 46.687L5.55342e-06 13.3713C-0.0066576 6.04182 5.98351 0.0399845 13.313 0.0316556L46.6287 5.55342e-06C53.9582 -0.0066576 59.96 5.98351 59.9683 13.313L60 46.6287C60.0083 53.9599 54.0165 59.9617 46.687 59.9683Z" fill="url(#paint0_radial_177_820)"/>
<path d="M46.687 59.9683L13.3713 60C6.04182 60.0067 0.0399845 54.0165 0.0316556 46.687L5.55342e-06 13.3713C-0.0066576 6.04182 5.98351 0.0399845 13.313 0.0316556L46.6287 5.55342e-06C53.9582 -0.0066576 59.96 5.98351 59.9683 13.313L60 46.6287C60.0083 53.9599 54.0165 59.9617 46.687 59.9683Z" fill="url(#paint1_radial_177_820)"/>
<path d="M30.0004 41.6614C23.5721 41.6614 18.3398 36.4308 18.3398 30.0008C18.3398 23.5709 23.5721 18.3403 30.0004 18.3403C36.4286 18.3403 41.6609 23.5709 41.6609 30.0008C41.6609 36.4308 36.4286 41.6614 30.0004 41.6614ZM30.0004 21.6719C25.4078 21.6719 21.6714 25.4083 21.6714 30.0008C21.6714 34.5934 25.4078 38.3298 30.0004 38.3298C34.5929 38.3298 38.3293 34.5934 38.3293 30.0008C38.3293 25.4083 34.5929 21.6719 30.0004 21.6719Z" fill="white"/>
<path d="M42.4943 20.0062C43.8743 20.0062 44.993 18.8875 44.993 17.5075C44.993 16.1275 43.8743 15.0088 42.4943 15.0088C41.1143 15.0088 39.9956 16.1275 39.9956 17.5075C39.9956 18.8875 41.1143 20.0062 42.4943 20.0062Z" fill="white"/>
<path d="M39.9952 51.6562H20.0057C13.5775 51.6562 8.34521 46.4256 8.34521 39.9957V20.0062C8.34521 13.5763 13.5775 8.3457 20.0057 8.3457H39.9952C46.4234 8.3457 51.6557 13.5763 51.6557 20.0062V39.9957C51.6557 46.4256 46.4234 51.6562 39.9952 51.6562ZM20.0057 11.6773C15.4131 11.6773 11.6768 15.4136 11.6768 20.0062V39.9957C11.6768 44.5882 15.4131 48.3246 20.0057 48.3246H39.9952C44.5877 48.3246 48.3241 44.5882 48.3241 39.9957V20.0062C48.3241 15.4136 44.5877 11.6773 39.9952 11.6773H20.0057Z" fill="white"/>
<defs>
<radialGradient id="paint0_radial_177_820" cx="0" cy="0" r="1" gradientUnits="userSpaceOnUse" gradientTransform="translate(22.3049 60.0433) scale(74.7922 74.7922)">
<stop stop-color="#FFDD55"/>
<stop offset="0.328" stop-color="#FF543F"/>
<stop offset="0.348" stop-color="#FC5245"/>
<stop offset="0.504" stop-color="#E64771"/>
<stop offset="0.643" stop-color="#D53E91"/>
<stop offset="0.761" stop-color="#CC39A4"/>
<stop offset="0.841" stop-color="#C837AB"/>
</radialGradient>
<radialGradient id="paint1_radial_177_820" cx="0" cy="0" r="1" gradientUnits="userSpaceOnUse" gradientTransform="translate(9.65491 -0.749095) scale(49.6621 33.0899)">
<stop stop-color="#4168C9"/>
<stop offset="0.999" stop-color="#4168C9" stop-opacity="0"/>
</radialGradient>
</defs>
</svg>
