<svg width="60" height="60" viewBox="0 0 60 60" fill="none" xmlns="http://www.w3.org/2000/svg">
<path d="M60 30C60 46.5675 46.5675 60 30 60C13.4325 60 0 46.5675 0 30C0 13.4325 13.4325 0 30 0C46.5675 0 60 13.4325 60 30Z" fill="url(#paint0_linear_177_816)"/>
<path d="M14.0214 27.8962C23.2531 23.0177 35.1988 17.0698 36.8484 16.2464C41.1736 14.0919 42.501 14.5044 41.8393 19.2767C41.3638 22.7067 39.9929 34.0614 38.8994 41.1293C38.2509 45.3209 36.7955 45.8174 34.5081 44.004C33.4079 43.1315 27.8544 38.7194 26.6486 37.6834C25.5485 36.7394 24.031 35.6035 25.9341 33.3665C26.6116 32.5701 31.0505 27.4774 34.5094 23.5142C34.9624 22.9939 34.3932 22.1387 33.8702 22.556C29.2081 26.27 22.7446 31.4246 21.9218 32.0957C20.679 33.1095 19.4851 33.5743 17.343 32.835C15.7238 32.2766 14.1429 31.6102 13.5275 31.3564C11.1568 30.3791 11.7194 29.113 14.0214 27.8962Z" fill="white"/>
<path opacity="0.07" d="M13.7 27.6138C23.2584 22.5573 35.0132 16.7629 36.7325 15.9428C40.8528 13.974 42.3688 15.1422 41.9258 18.9468C41.5142 22.4692 40.0537 33.3679 39.03 40.674C38.4266 44.9747 36.6644 45.9217 34.3694 44.165C32.9316 43.0686 27.1451 38.5573 25.7414 37.2443C24.6558 36.23 23.5311 35.0589 24.8451 33.3634C25.2844 32.7973 27.7106 30.0263 29.5246 27.9649C30.5761 26.7683 30.2012 26.1783 28.9326 27.206C26.6061 29.0927 22.8002 32.0788 22.121 32.621C20.8271 33.6517 19.6115 33.8997 17.4958 33.1125C15.8283 32.4911 14.2176 31.8891 13.3781 31.5022C11.5023 30.6417 11.477 28.7894 13.7 27.6138Z" fill="black"/>
<defs>
<linearGradient id="paint0_linear_177_816" x1="8.787" y1="8.787" x2="51.213" y2="51.213" gradientUnits="userSpaceOnUse">
<stop stop-color="#33BEF0"/>
<stop offset="1" stop-color="#0A85D9"/>
</linearGradient>
</defs>
</svg>
