<svg width="60" height="60" viewBox="0 0 60 60" fill="none" xmlns="http://www.w3.org/2000/svg">
<rect width="60" height="60" fill="url(#paint0_linear_177_826)"/>
<path opacity="0.05" d="M51.2283 16.735C51.305 16.4833 51.3417 16.25 51.3317 16.0417C51.3067 15.4383 50.8917 15 49.915 15H42.9917C41.89 15 41.3817 15.6667 41.085 16.335C41.085 16.335 38.2183 22.475 37.5483 23.75C36.5317 24.8183 35.8733 26.0183 35.3233 26.0183C35.0283 26.0183 34.6667 26.31 34.6667 25.3317V16.69C34.6667 15.5333 34.3783 15 33.4467 15H22.365C21.6867 15 21.3333 15.5333 21.3333 16.0683C21.3333 17.18 22.83 20.78 23 23.895V25.3867C23 26.4467 23.1683 27.4533 22.7717 27.4533C22.2883 27.4533 20.5983 23.7167 19.17 16.78C18.7467 15.49 18.3233 15 17.2217 15H9.48333C8.21167 15 8 15.6233 8 16.29C8 18.9767 9.40667 26.7767 14.865 34.2467C18.8233 39.6633 25.2983 43.3333 29.915 43.3333C31.9767 43.3333 34.665 43.3 34.665 40.2C34.665 37.1 34.6317 35.475 34.9383 35.475C35.335 35.475 35.5217 35.6567 38.0217 38.5733C40.9067 41.935 41.6117 43.3333 43.265 43.3333H49.715C50.7283 43.3333 51.31 42.9083 51.3333 42.0833C51.3333 39.9583 50.71 38.7283 47.5833 34.145C46.5583 32.9067 44.6667 30.8183 44.6667 29.9783C44.6667 29.0333 49.9817 21.8517 51.2283 16.735Z" fill="black"/>
<path opacity="0.07" d="M50.7282 19.235C50.8048 18.9833 50.8415 18.75 50.8315 18.5417C50.8065 17.9383 50.3915 17.5 49.4148 17.5H43.7715C42.6698 17.5 42.1615 18.1667 41.8648 18.835C41.8648 18.835 39.0715 24.705 37.1682 27.1883C36.1515 28.2567 35.5648 28.8433 35.0148 28.8433C34.7198 28.8433 34.1665 28.8117 34.1665 27.8333V19.1917C34.1665 18.035 33.8782 17.5017 32.9465 17.5017H23.5315C22.8532 17.5017 22.4998 18.035 22.4998 18.57C22.4998 19.6817 23.9965 21.615 24.1665 24.73V28.495C24.1665 29.7583 24.1232 30.395 23.6498 30.395C22.6665 30.395 20.3615 26.0267 18.6698 19.2817C18.2465 17.9917 17.8232 17.5017 16.7215 17.5017H10.6498C9.37817 17.5017 9.1665 18.125 9.1665 18.7917C9.1665 20.7367 10.3698 27.8833 15.8282 35.3533C19.7865 40.77 25.6315 44.1683 30.2482 44.1683C32.6765 44.1683 34.1648 43.8 34.1648 41.69V38.0533C34.1665 36.7183 34.3015 36.0717 34.8998 36.0717C35.4165 36.0717 36.1565 36.37 38.6565 39.2867C41.5398 42.65 42.1548 44.1667 43.8082 44.1667H49.2148C50.2282 44.1667 50.8098 43.7417 50.8332 42.9167C50.8332 41.2733 49.6882 39.19 47.0832 35.8217C46.0582 34.5833 44.1665 32.61 44.1665 31.655C44.1665 30.7 48.9082 25.1 50.7282 19.235Z" fill="black"/>
<path d="M49.895 20.0685C49.9717 19.8168 50.0083 19.5835 49.9983 19.3752C49.9733 18.7718 49.5583 18.3335 48.5817 18.3335H44.2183C43.1167 18.3335 42.6083 19.0002 42.3117 19.6685C42.3117 19.6685 39.5917 25.2668 36.4567 28.9585C35.44 30.0268 34.9233 30.0002 34.3733 30.0002C34.0783 30.0002 33.3333 29.6435 33.3333 28.6652V20.0235C33.3333 18.8668 33.045 18.3335 32.1133 18.3335H24.365C23.6867 18.3335 23.3333 18.8668 23.3333 19.4018C23.3333 20.5135 24.83 20.7802 25 23.8952V29.9335C25 31.4002 24.745 31.6668 24.195 31.6668C22.7117 31.6668 19.7917 26.6668 17.8367 20.1135C17.4133 18.8235 16.99 18.3335 15.8883 18.3335H11.4833C10.2117 18.3335 10 18.9568 10 19.6235C10 20.8252 11 27.3218 16.4583 34.7918C20.4167 40.2085 25.6317 43.3335 30.2483 43.3335C33.045 43.3335 33.3317 42.6218 33.3317 41.5102V36.5568C33.3333 35.2218 33.6383 35.0002 34.5283 35.0002C35.1633 35.0002 36.4583 35.4168 38.9583 38.3335C41.8417 41.6968 42.365 43.3335 44.0183 43.3335H48.3817C49.395 43.3335 49.9767 42.9085 50 42.0835C50.005 41.8735 49.975 41.6385 49.9067 41.3768C49.5833 40.4168 48.1 38.0702 46.25 35.8335C45.225 34.5952 44.2133 33.3685 43.7483 32.7018C43.4367 32.2668 43.3183 31.9602 43.3333 31.6668C43.3483 31.3585 43.5083 31.0652 43.7483 30.6552C43.705 30.6552 49.345 22.7368 49.895 20.0685Z" fill="white"/>
<defs>
<linearGradient id="paint0_linear_177_826" x1="20.3133" y1="0.00166707" x2="39.0767" y2="58.1083" gradientUnits="userSpaceOnUse">
<stop stop-color="#33BEF0"/>
<stop offset="1" stop-color="#0A85D9"/>
</linearGradient>
</defs>
</svg>
